<?xml version="1.0" standalone="no"?>
<!DOCTYPE svg PUBLIC "-//W3C//DTD SVG 1.1//EN" "http://www.w3.org/Graphics/SVG/1.1/DTD/svg11.dtd" >
<svg xmlns="http://www.w3.org/2000/svg">
<metadata>
Generated by SVGconv.
Copyright   : Copyright (c) 2012 by Vyacheslav Kirilenko, Gayane Bagdasaryan. All rights reserved.
Designer    : Vyacheslav Kirilenko, Gayane Bagdasaryan
Foundry     : Vyacheslav Kirilenko, Gayane Bagdasaryan
Foundry URL : http://www.brownfox.org
</metadata>
<defs>
<font id="Geometria-Medium" horiz-adv-x="705" >
<font-face units-per-em="1000" ascent="949" descent="309" />
<missing-glyph horiz-adv-x="727" />
<glyph unicode="&#13;" horiz-adv-x="260" />
<glyph unicode="&#32;" horiz-adv-x="260" />
<glyph unicode="&#33;" horiz-adv-x="310" d="M154 -8q-29 0 -49.5 20.5q-20.5 20.5 -20.5 49.5q0 29 20.5 50q20.5 21 49.5 21q29 0 49.5 -21q20.5 -21 20.5 -50q0 -29 -20.5 -49.5q-20.5 -20.5 -49.5 -20.5zt0 0zM84 700h142l-23 -475l-97 0z" />
<glyph unicode="&#34;" horiz-adv-x="376" d="M45 700h94v-276h-94zM238 700h94v-276l-94 0z" />
<glyph unicode="&#35;" horiz-adv-x="750" d="M177 179h-142l13 83h141l29 175h-142l13 84h141l29 179h86l-29 -179h173l28 179h85l-28 -179h142l-14 -84h-141l-28 -175h142l-13 -83h-142l-29 -179h-85l29 179h-174l-27 -179h-86zM448 262l28 175h-174l-27 -175z" />
<glyph unicode="&#36;" horiz-adv-x="630" d="M256 -111v101q-63 6 -117.5 25q-54.5 19 -92.5 47l0 118q19 -17 47.5 -33.5q28.5 -16.5 62 -29.5q33.5 -13 71.5 -20.5q38 -7.5 76 -7.5q33 0 62 7q29 7 51.5 20q22.5 13 35.5 32.5q13 19.5 13 45.5q0 28 -13.5 46.5q-13.5 18.5 -37.5 32q-24 13.5 -56.5 23.5q-32.5 10 -69.5 21q-47 13 -89 28q-42 15 -74 37.5q-32 22.5 -51 55.5q-19 33 -19 84q0 76 52.5 126q52.5 50 148.5 62l0 101h108v-101q50 -6 92.5 -20.5q42.5 -14.5 76.5 -34.5l0 -109q-43 26 -101.5 45.5q-58.5 19.5 -120.5 19.5q-38 0 -65.5 -7.5q-27.5 -7.5 -44.5 -19.5q-17 -12 -25 -28.5q-8 -16.5 -8 -34.5q0 -25 17.5 -42.5q17.5 -17.5 46.5 -30.5q29 -13 66 -23.5q37 -10.5 75 -23q38 -12.5 75 -28.5q37 -16 66 -39.5q29 -23.5 46.5 -57q17.5 -33.5 17.5 -80.5q0 -44 -16.5 -79q-16.5 -35 -45 -61q-28.5 -26 -67.5 -42.5q-39 -16.5 -85 -22.5l0 -102z" />
<glyph unicode="&#37;" horiz-adv-x="819" d="M575 700h83l-413 -700h-84zM207 713q38 0 69.5 -13q31.5 -13 54.5 -36q23 -23 36 -54q13 -31 13 -67q0 -36 -13 -66.5q-13 -30.5 -36 -53.5q-23 -23 -54.5 -36q-31.5 -13 -69.5 -13q-37 0 -68.5 13q-31.5 13 -54 36q-22.5 23 -35.5 53.5q-13 30.5 -13 66.5q0 36 13 67q13 31 35.5 54q22.5 23 54 36q31.5 13 68.5 13zt0 0zM207 447q42 0 68 27.5q26 27.5 26 68.5q0 42 -26 69q-26 27 -68 27q-41 0 -66.5 -27q-25.5 -27 -25.5 -69q0 -41 25.5 -68.5q25.5 -27.5 66.5 -27.5zt0 0zM610 326q38 0 69.5 -13q31.5 -13 54.5 -36q23 -23 36 -54q13 -31 13 -66q0 -36 -13 -67q-13 -31 -36 -54q-23 -23 -54.5 -36q-31.5 -13 -69.5 -13q-37 0 -68.5 13q-31.5 13 -54 36q-22.5 23 -35.5 54q-13 31 -13 67q0 35 13 66q13 31 35.5 54q22.5 23 54 36q31.5 13 68.5 13zt0 0zM610 61q42 0 68 27q26 27 26 69q0 41 -26 68.5q-26 27.5 -68 27.5q-41 0 -66.5 -27.5q-25.5 -27.5 -25.5 -68.5q0 -42 25.5 -69t66.5 -27z" />
<glyph unicode="&#38;" horiz-adv-x="737" d="M506 553q-31 27 -71.5 46q-40.5 19 -88.5 19q-51 0 -80.5 -23.5q-29.5 -23.5 -29.5 -66.5q0 -20 8.5 -39.5q8.5 -19.5 22 -38q13.5 -18.5 30 -35q16.5 -16.5 31.5 -31.5l182 -178q23 36 34 79q11 43 13 93l104 0q0 -142 -75 -246l136 -132h-140l-64 61q-43 -35 -95 -54.5q-52 -19.5 -119 -19.5q-51 0 -98.5 14.5q-47.5 14.5 -84 43.5q-36.5 29 -58 71.5q-21.5 42.5 -21.5 98.5q0 39 12.5 71.5q12.5 32.5 31.5 57.5q19 25 41 42q22 17 41 26q-17 25 -28.5 55q-11.5 30 -11.5 70q0 38 15 70.5q15 32.5 41 56q26 23.5 62.5 36.5q36.5 13 80.5 13q55 0 100 -14.5q45 -14.5 79 -37.5zM307 82q43 0 77 13q34 13 61 36l-213 208q-14 -5 -29 -16q-15 -11 -27 -26.5q-12 -15.5 -19.5 -35.5q-7.5 -20 -7.5 -44q0 -33 13 -58.5q13 -25.5 35 -42.5q22 -17 50.5 -25.5t59.5 -8.5z" />
<glyph unicode="&#39;" horiz-adv-x="183" d="M45 700h94v-276l-94 0z" />
<glyph unicode="&#40;" horiz-adv-x="375" d="M229 -206q-66 82 -106.5 197q-40.5 115 -40.5 259q0 143 40.5 258.5q40.5 115.5 106.5 197.5l111 0q-34 -43 -63 -92.5q-29 -49.5 -50 -106q-21 -56.5 -33 -120.5q-12 -64 -12 -137q0 -72 12 -136.5q12 -64.5 33 -121q21 -56.5 50 -106q29 -49.5 63 -92.5l-111 0z" />
<glyph unicode="&#41;" horiz-adv-x="375" d="M35 -206q34 43 63 92.5q29 49.5 50 106q21 56.5 33 121q12 64.5 12 136.5q0 73 -12 137q-12 64 -33 120.5q-21 56.5 -50 106q-29 49.5 -63 92.5l111 0q66 -82 106.5 -197.5q40.5 -115.5 40.5 -258.5q0 -144 -40.5 -259q-40.5 -115 -106.5 -197z" />
<glyph unicode="&#42;" horiz-adv-x="423" d="M177 455l-106 -63l-38 64l108 61l-108 60l38 64l106 -64l-2 123h74l-2 -123l106 64l37 -64l-109 -60l109 -61l-37 -64l-106 63l2 -123l-74 0z" />
<glyph unicode="&#43;" horiz-adv-x="631" d="M266 280h-198v97h198v199h98v-199h199v-97h-199v-199l-98 0z" />
<glyph unicode="&#44;" horiz-adv-x="254" d="M91 128h124l-122 -280l-85 0z" />
<glyph unicode="&#45;" horiz-adv-x="491" d="M98 324h295v-97l-295 0z" />
<glyph unicode="&#46;" horiz-adv-x="250" d="M126 -8q-30 0 -50.5 20.5q-20.5 20.5 -20.5 50.5q0 29 20.5 49.5q20.5 20.5 50.5 20.5q29 0 49.5 -20.5q20.5 -20.5 20.5 -49.5q0 -30 -20.5 -50.5t-49.5 -20.5z" />
<glyph unicode="&#47;" horiz-adv-x="523" d="M413 792h110l-421 -932l-110 0z" />
<glyph unicode="&#48;" horiz-adv-x="706" d="M353 -13q-69 0 -123.5 29.5q-54.5 29.5 -92.5 79q-38 49.5 -58 115.5q-20 66 -20 139q0 73 20 138.5q20 65.5 58 115.5q38 50 92.5 79.5q54.5 29.5 123.5 29.5q69 0 123.5 -29.5q54.5 -29.5 93 -79.5q38.5 -50 58.5 -115.5q20 -65.5 20 -138.5q0 -73 -20 -139q-20 -66 -58.5 -115.5q-38.5 -49.5 -93 -79q-54.5 -29.5 -123.5 -29.5zt0 0zM353 90q42 0 76.5 20.5q34.5 20.5 58.5 56q24 35.5 37 83q13 47.5 13 100.5q0 53 -13 100.5q-13 47.5 -37 83q-24 35.5 -58.5 56q-34.5 20.5 -76.5 20.5q-42 0 -76 -20.5q-34 -20.5 -58 -56q-24 -35.5 -37 -83q-13 -47.5 -13 -100.5q0 -53 13 -100.5q13 -47.5 37 -83q24 -35.5 58 -56t76 -20.5z" />
<glyph unicode="&#49;" horiz-adv-x="382" d="M179 582l-153 -82v107l165 93h96v-700l-108 0z" />
<glyph unicode="&#50;" horiz-adv-x="577" d="M40 80l220 206q34 32 59.5 58.5q25.5 26.5 41.5 50.5q16 24 24 48q8 24 8 51q0 53 -38 85.5q-38 32.5 -101 32.5q-63 0 -110 -25q-47 -25 -86 -62l0 115q37 31 88.5 52q51.5 21 118.5 21q48 0 91 -14.5q43 -14.5 76 -41q33 -26.5 52 -64.5q19 -38 19 -86q0 -38 -9 -69.5q-9 -31.5 -27.5 -62.5q-18.5 -31 -47.5 -63q-29 -32 -69 -70l-151 -144h328v-98l-487 0z" />
<glyph unicode="&#51;" horiz-adv-x="574" d="M249 -13q-69 0 -120.5 15q-51.5 15 -88.5 38l0 107q35 -25 86 -43.5q51 -18.5 117 -18.5q33 0 64 9.5q31 9.5 54 27.5q23 18 37 44.5q14 26.5 14 60.5q0 30 -11.5 55q-11.5 25 -32.5 43q-21 18 -51 28q-30 10 -67 10q-29 0 -51 -5q-22 -5 -38 -11l0 75l188 182h-283v96h429v-83l-179 -172q39 -4 76.5 -20.5q37.5 -16.5 66.5 -44q29 -27.5 46.5 -66q17.5 -38.5 17.5 -87.5q0 -56 -21.5 -100q-21.5 -44 -58.5 -75.5q-37 -31.5 -87 -48t-107 -16.5z" />
<glyph unicode="&#52;" horiz-adv-x="637" d="M392 183h-363v84l363 433h108v-423h109v-94h-109v-183h-108zM392 277v282l-238 -282z" />
<glyph unicode="&#53;" horiz-adv-x="592" d="M251 -13q-64 0 -112 13.5q-48 13.5 -85 34.5l0 103q33 -20 81.5 -36.5q48.5 -16.5 110.5 -16.5q37 0 69.5 10q32.5 10 57 28q24.5 18 38.5 44q14 26 14 59q0 30 -12 55q-12 25 -35 44q-23 19 -55.5 29.5q-32.5 10.5 -73.5 10.5q-44 0 -85 -8q-41 -8 -83 -22l46 365h360v-96h-280l-20 -161q19 5 40.5 8q21.5 3 47.5 3q56 0 104 -16.5q48 -16.5 83 -46.5q35 -30 54.5 -72q19.5 -42 19.5 -93q0 -56 -22.5 -100.5q-22.5 -44.5 -61 -75.5q-38.5 -31 -90.5 -47t-111 -16z" />
<glyph unicode="&#54;" horiz-adv-x="639" d="M333 -13q-64 0 -114.5 22.5q-50.5 22.5 -86 64.5q-35.5 42 -54 103q-18.5 61 -18.5 138q0 80 20 152q20 72 59.5 127q39.5 55 98 87q58.5 32 135.5 32q41 0 80.5 -10.5q39.5 -10.5 73.5 -33.5l0 -100q-65 44 -142 44q-54 0 -93 -20.5q-39 -20.5 -65 -54q-26 -33.5 -39 -77q-13 -43.5 -15 -88.5q27 35 72.5 57q45.5 22 108.5 22q46 0 87 -15.5q41 -15.5 72 -44.5q31 -29 48.5 -70.5q17.5 -41.5 17.5 -92.5q0 -54 -19 -98.5q-19 -44.5 -52 -76.5q-33 -32 -78 -49.5q-45 -17.5 -97 -17.5zt0 0zM326 84q31 0 57 10.5q26 10.5 45.5 29.5q19.5 19 30.5 45.5q11 26.5 11 57.5q0 31 -11 56q-11 25 -30.5 43q-19.5 18 -46 27.5q-26.5 9.5 -57.5 9.5q-26 0 -50.5 -8.5q-24.5 -8.5 -45.5 -23.5q-21 -15 -36.5 -35q-15.5 -20 -22.5 -44q6 -77 46 -122.5t110 -45.5z" />
<glyph unicode="&#55;" horiz-adv-x="561" d="M393 601h-353v99h478v-85l-310 -615l-118 0z" />
<glyph unicode="&#56;" horiz-adv-x="643" d="M456 372q61 -20 100 -65.5q39 -45.5 39 -111.5q0 -50 -22 -88.5q-22 -38.5 -59 -65q-37 -26.5 -87 -40.5q-50 -14 -105 -14q-56 0 -105.5 14q-49.5 14 -87 40.5q-37.5 26.5 -59.5 65q-22 38.5 -22 88.5q0 66 39.5 111.5q39.5 45.5 100.5 65.5q-48 20 -77 59q-29 39 -29 93q0 42 18 77q18 35 50.5 60q32.5 25 76.5 38.5q44 13.5 95 13.5q51 0 94.5 -13.5q43.5 -13.5 76 -38.5q32.5 -25 50.5 -60q18 -35 18 -77q0 -54 -29.5 -93q-29.5 -39 -75.5 -59zt0 0zM187 515q0 -24 10.5 -43.5q10.5 -19.5 28.5 -33.5q18 -14 42.5 -22q24.5 -8 53.5 -8q28 0 52.5 8q24.5 8 42.5 22q18 14 28.5 33.5q10.5 19.5 10.5 43.5q0 24 -10.5 43.5q-10.5 19.5 -28.5 33.5q-18 14 -42.5 22q-24.5 8 -52.5 8q-29 0 -53.5 -8q-24.5 -8 -42.5 -22q-18 -14 -28.5 -33.5q-10.5 -19.5 -10.5 -43.5zt0 0zM322 80q34 0 63.5 9.5q29.5 9.5 51 26q21.5 16.5 33.5 38.5q12 22 12 48q0 27 -12 49.5q-12 22.5 -33.5 38q-21.5 15.5 -51 24.5q-29.5 9 -63.5 9q-34 0 -63.5 -9q-29.5 -9 -51 -24.5q-21.5 -15.5 -34 -38q-12.5 -22.5 -12.5 -49.5q0 -26 12.5 -48q12.5 -22 34 -38.5q21.5 -16.5 51 -26t63.5 -9.5z" />
<glyph unicode="&#57;" horiz-adv-x="639" d="M306 713q64 0 114.5 -22.5q50.5 -22.5 86 -64.5q35.5 -42 54 -103q18.5 -61 18.5 -138q0 -80 -20 -152q-20 -72 -59.5 -127q-39.5 -55 -98 -87q-58.5 -32 -135.5 -32q-41 0 -80.5 10.5q-39.5 10.5 -73.5 33.5l0 100q65 -44 142 -44q54 0 93 20.5q39 20.5 65 54q26 33.5 39 77q13 43.5 15 88.5q-27 -35 -72.5 -57q-45.5 -22 -108.5 -22q-47 0 -87.5 15.5q-40.5 15.5 -71.5 44.5q-31 29 -48.5 70.5q-17.5 41.5 -17.5 92.5q0 54 19 98.5q19 44.5 52 76.5q33 32 78 49.5q45 17.5 97 17.5zt0 0zM313 616q-31 0 -57 -10.5q-26 -10.5 -45.5 -29.5q-19.5 -19 -30.5 -45.5q-11 -26.5 -11 -57.5q0 -31 11 -56q11 -25 30.5 -43q19.5 -18 46 -27.5q26.5 -9.5 57.5 -9.5q26 0 50.5 8.5q24.5 8.5 45.5 23.5q21 15 36.5 35q15.5 20 22.5 44q-6 77 -46 122.5t-110 45.5z" />
<glyph unicode="&#58;" horiz-adv-x="250" d="M126 342q-30 0 -50.5 20.5q-20.5 20.5 -20.5 50.5q0 29 20.5 49.5q20.5 20.5 50.5 20.5q29 0 49.5 -20.5q20.5 -20.5 20.5 -49.5q0 -30 -20.5 -50.5q-20.5 -20.5 -49.5 -20.5zt0 0zM126 -8q-30 0 -50.5 20.5q-20.5 20.5 -20.5 50.5q0 29 20.5 49.5q20.5 20.5 50.5 20.5q29 0 49.5 -20.5q20.5 -20.5 20.5 -49.5q0 -30 -20.5 -50.5t-49.5 -20.5z" />
<glyph unicode="&#59;" horiz-adv-x="261" d="M91 128h124l-122 -280h-85zM152 342q-30 0 -50.5 20.5q-20.5 20.5 -20.5 50.5q0 29 20.5 49.5q20.5 20.5 50.5 20.5q29 0 49.5 -20.5q20.5 -20.5 20.5 -49.5q0 -30 -20.5 -50.5t-49.5 -20.5z" />
<glyph unicode="&#60;" horiz-adv-x="631" d="M68 276v101l495 207v-106l-383 -151l383 -151l0 -105z" />
<glyph unicode="&#61;" horiz-adv-x="631" d="M68 491h495v-97h-495zM68 263h495v-97l-495 0z" />
<glyph unicode="&#62;" horiz-adv-x="631" d="M68 176l382 151l-382 151v106l495 -207v-101l-495 -205z" />
<glyph unicode="&#63;" horiz-adv-x="484" d="M216 -8q-30 0 -50 20.5q-20 20.5 -20 50.5q0 29 20 49.5q20 20.5 50 20.5q29 0 49.5 -20.5q20.5 -20.5 20.5 -49.5q0 -30 -20.5 -50.5q-20.5 -20.5 -49.5 -20.5zt0 0zM161 370q32 6 63.5 18.5q31.5 12.5 56 30.5q24.5 18 40 41q15.5 23 15.5 50q0 50 -37 76.5q-37 26.5 -96 26.5q-54 0 -97 -17q-43 -17 -78 -40l0 95q37 27 87.5 43q50.5 16 105.5 16q45 0 85.5 -12.5q40.5 -12.5 72 -37.5q31.5 -25 50 -61q18.5 -36 18.5 -82q0 -39 -16 -71.5q-16 -32.5 -42 -57.5q-26 -25 -58.5 -43q-32.5 -18 -65.5 -28l0 -92l-104 0z" />
<glyph unicode="&#64;" horiz-adv-x="951" d="M475 -163q-90 0 -168.5 33q-78.5 33 -137.5 91.5q-59 58.5 -93 138.5q-34 80 -34 175q0 93 34 173.5q34 80.5 93 139q59 58.5 137.5 92q78.5 33.5 168.5 33.5q93 0 172 -32q79 -32 137.5 -88q58.5 -56 91.5 -131q33 -75 33 -161q0 -54 -13 -99q-13 -45 -36.5 -77q-23.5 -32 -56.5 -49.5q-33 -17.5 -73 -17.5q-53 0 -86.5 22.5q-33.5 22.5 -49.5 52.5q-8 -12 -22.5 -25.5q-14.5 -13.5 -34 -25.5q-19.5 -12 -44 -19.5q-24.5 -7.5 -54.5 -7.5q-45 0 -81.5 17q-36.5 17 -62.5 47q-26 30 -40.5 70q-14.5 40 -14.5 85q0 46 14.5 86q14.5 40 40.5 69.5q26 29.5 62.5 46.5q36.5 17 80.5 17q27 0 49.5 -6.5q22.5 -6.5 40.5 -16.5q18 -10 31 -22q13 -12 22 -23l0 55h101v-279q0 -53 20 -77.5q20 -24.5 53 -24.5q24 0 45.5 14q21.5 14 38 40q16.5 26 26.5 63.5q10 37.5 10 85.5q0 75 -28 144q-28 69 -80 121.5q-52 52.5 -126 83.5q-74 31 -166 31q-87 0 -160.5 -32q-73.5 -32 -126.5 -87.5q-53 -55.5 -82.5 -129.5q-29.5 -74 -29.5 -158q0 -84 29.5 -158.5q29.5 -74.5 82.5 -129.5q53 -55 126 -87q73 -32 161 -32q66 0 117.5 16.5q51.5 16.5 96.5 41.5l0 -35q-45 -25 -98.5 -39.5q-53.5 -14.5 -115.5 -14.5zt0 0zM468 145q37 0 66.5 19q29.5 19 46.5 46l0 128q-17 27 -46.5 46q-29.5 19 -66.5 19q-27 0 -49 -10q-22 -10 -38.5 -27.5q-16.5 -17.5 -25.5 -41q-9 -23.5 -9 -50.5q0 -27 9 -50.5q9 -23.5 25.5 -41q16.5 -17.5 38.5 -27.5t49 -10z" />
<glyph unicode="&#65;" horiz-adv-x="762" d="M328 704h106l306 -704h-118l-76 174h-332l-75 -174h-117zM508 271l-128 294l-128 -294z" />
<glyph unicode="&#66;" horiz-adv-x="721" d="M87 700h318q46 0 84 -11.5q38 -11.5 65 -33.5q27 -22 42 -54q15 -32 15 -73q0 -57 -28 -93.5q-28 -36.5 -65 -50.5q30 -6 57.5 -20.5q27.5 -14.5 47.5 -38.5q20 -24 32 -56q12 -32 12 -72q0 -44 -16 -80q-16 -36 -46.5 -62q-30.5 -26 -74.5 -40.5q-44 -14.5 -99 -14.5h-344zM411 101q65 0 101 29.5q36 29.5 36 82.5q0 53 -36 80.5q-36 27.5 -101 27.5h-214v-220zM386 418q55 0 85.5 23q30.5 23 30.5 68q0 45 -30.5 67.5q-30.5 22.5 -85.5 22.5h-189l0 -181z" />
<glyph unicode="&#67;" horiz-adv-x="684" d="M431 -13q-78 0 -145.5 27q-67.5 27 -117 75q-49.5 48 -78 114.5q-28.5 66.5 -28.5 146.5q0 79 28 146q28 67 77.5 115q49.5 48 117 75q67.5 27 146.5 27q108 0 190 -47l0 -111q-41 26 -85.5 40.5q-44.5 14.5 -103.5 14.5q-55 0 -102 -19.5q-47 -19.5 -81.5 -54q-34.5 -34.5 -54 -82q-19.5 -47.5 -19.5 -104.5q0 -57 20 -105q20 -48 55 -82.5q35 -34.5 82.5 -53.5q47.5 -19 103.5 -19q57 0 107 15q50 15 93 49l0 -111q-42 -27 -94.5 -41.5t-110.5 -14.5z" />
<glyph unicode="&#68;" horiz-adv-x="778" d="M87 700h247q85 0 155 -25.5q70 -25.5 120.5 -72q50.5 -46.5 78.5 -110.5q28 -64 28 -142q0 -78 -28 -142q-28 -64 -78.5 -110.5q-50.5 -46.5 -120.5 -72q-70 -25.5 -155 -25.5h-247zM324 101q66 0 117.5 17.5q51.5 17.5 87.5 49.5q36 32 55 78.5q19 46.5 19 103.5q0 57 -19 103.5q-19 46.5 -55 78.5q-36 32 -87.5 49.5q-51.5 17.5 -117.5 17.5h-127l0 -498z" />
<glyph unicode="&#69;" horiz-adv-x="641" d="M87 700h498v-101h-388v-175h316v-101h-316v-222h401v-101l-511 0z" />
<glyph unicode="&#70;" horiz-adv-x="625" d="M87 700h497v-101h-387v-183h307v-101h-307v-315l-110 0z" />
<glyph unicode="&#71;" horiz-adv-x="774" d="M426 -13q-77 0 -143 27q-66 27 -115.5 75q-49.5 48 -77.5 114.5q-28 66.5 -28 146.5q0 79 28 146q28 67 77.5 115q49.5 48 116.5 75q67 27 146 27q67 0 119.5 -15.5q52.5 -15.5 96.5 -44.5l0 -109q-51 35 -103 50.5q-52 15.5 -106 15.5q-57 0 -105 -19q-48 -19 -83 -53.5q-35 -34.5 -54.5 -82.5q-19.5 -48 -19.5 -106q0 -59 20 -107q20 -48 54 -82q34 -34 79.5 -52q45.5 -18 97.5 -18q48 0 92.5 14q44.5 14 76.5 45l0 255h110v-300q-20 -24 -49 -45q-29 -21 -64.5 -37q-35.5 -16 -77.5 -25.5t-88 -9.5z" />
<glyph unicode="&#72;" horiz-adv-x="759" d="M87 700h110v-276h365v276h110v-700h-110v323h-365v-323l-110 0z" />
<glyph unicode="&#73;" horiz-adv-x="295" d="M92 700h110v-700l-110 0z" />
<glyph unicode="&#74;" horiz-adv-x="509" d="M196 -13q-43 0 -87 10q-44 10 -77 33l0 109q28 -23 66 -36q38 -13 77 -13q72 0 108.5 35q36.5 35 36.5 115v460h110v-478q0 -65 -18 -110q-18 -45 -49.5 -72.5q-31.5 -27.5 -74.5 -40t-92 -12.5z" />
<glyph unicode="&#75;" horiz-adv-x="682" d="M87 700h110v-286l287 286h141l-324 -320l376 -380h-150l-330 336v-336l-110 0z" />
<glyph unicode="&#76;" horiz-adv-x="600" d="M87 700h111v-599h372v-101l-483 0z" />
<glyph unicode="&#77;" horiz-adv-x="848" d="M87 700h112l227 -315l225 315h110v-700h-110v532l-195 -264h-64l-195 264v-532l-110 0z" />
<glyph unicode="&#78;" horiz-adv-x="773" d="M87 700h96l395 -507v507h108v-700h-93l-398 509v-509l-108 0z" />
<glyph unicode="&#79;" horiz-adv-x="839" d="M419 90q52 0 97 19.5q45 19.5 78 54.5q33 35 51.5 82.5q18.5 47.5 18.5 103.5q0 56 -18.5 103.5q-18.5 47.5 -51.5 82.5q-33 35 -78 54.5q-45 19.5 -97 19.5q-52 0 -96.5 -19.5q-44.5 -19.5 -77.5 -54.5q-33 -35 -51.5 -82.5q-18.5 -47.5 -18.5 -103.5q0 -56 18.5 -103.5q18.5 -47.5 51.5 -82.5q33 -35 77.5 -54.5q44.5 -19.5 96.5 -19.5zt0 0zM419 -13q-77 0 -142.5 28q-65.5 28 -113 77q-47.5 49 -74.5 115q-27 66 -27 143q0 76 27 142.5q27 66.5 74.5 115.5q47.5 49 113 77q65.5 28 142.5 28q77 0 142.5 -28q65.5 -28 113.5 -77q48 -49 75 -115.5q27 -66.5 27 -142.5q0 -77 -27 -143q-27 -66 -75 -115q-48 -49 -113.5 -77t-142.5 -28z" />
<glyph unicode="&#80;" horiz-adv-x="662" d="M87 700h301q55 0 98.5 -15q43.5 -15 73.5 -42q30 -27 46 -64.5q16 -37.5 16 -81.5q0 -45 -16 -83q-16 -38 -46 -66q-30 -28 -73.5 -43.5q-43.5 -15.5 -98.5 -15.5h-191v-289h-110zM379 390q62 0 97 27q35 27 35 78q0 51 -35 77.5q-35 26.5 -97 26.5h-182l0 -209z" />
<glyph unicode="&#81;" horiz-adv-x="839" d="M419 -13q-77 0 -142.5 28q-65.5 28 -113 77q-47.5 49 -74.5 115q-27 66 -27 143q0 76 27 142.5q27 66.5 74.5 115.5q47.5 49 113 77q65.5 28 142.5 28q77 0 142.5 -28q65.5 -28 113.5 -77q48 -49 75 -115.5q27 -66.5 27 -142.5q0 -59 -16 -111.5q-16 -52.5 -45 -96q-29 -43.5 -70 -77q-41 -33.5 -91 -53.5q27 -28 54.5 -42.5q27.5 -14.5 57.5 -14.5q26 0 45.5 5.5q19.5 5.5 37.5 16.5l0 -101q-23 -11 -46 -16.5q-23 -5.5 -54 -5.5q-62 0 -113.5 36q-51.5 36 -106.5 97zM419 90q52 0 97 19.5q45 19.5 78 54.5q33 35 51.5 82.5q18.5 47.5 18.5 103.5q0 56 -18.5 103.5q-18.5 47.5 -51.5 82.5q-33 35 -78 54.5q-45 19.5 -97 19.5q-52 0 -96.5 -19.5q-44.5 -19.5 -77.5 -54.5q-33 -35 -51.5 -82.5q-18.5 -47.5 -18.5 -103.5q0 -56 18.5 -103.5q18.5 -47.5 51.5 -82.5q33 -35 77.5 -54.5t96.5 -19.5z" />
<glyph unicode="&#82;" horiz-adv-x="733" d="M87 700h319q55 0 98 -15q43 -15 72.5 -41q29.5 -26 45 -63q15.5 -37 15.5 -80q0 -71 -39 -123.5q-39 -52.5 -113 -69.5l220 -308h-133l-211 296h-164v-296h-110zM399 393q60 0 93.5 26.5q33.5 26.5 33.5 77.5q0 49 -33.5 75.5q-33.5 26.5 -93.5 26.5h-202l0 -206z" />
<glyph unicode="&#83;" horiz-adv-x="630" d="M308 -13q-80 0 -148 20.5q-68 20.5 -115 54.5l0 119q19 -17 47.5 -33.5q28.5 -16.5 62 -29.5q33.5 -13 71.5 -20.5q38 -7.5 76 -7.5q33 0 62 6.5q29 6.5 51.5 20q22.5 13.5 35.5 32.5q13 19 13 45q0 28 -13.5 46.5q-13.5 18.5 -37.5 32q-24 13.5 -56.5 23.5q-32.5 10 -69.5 21q-47 13 -89 28q-42 15 -74 37.5q-32 22.5 -51 55.5q-19 33 -19 84q0 43 17.5 78q17.5 35 50 60q32.5 25 79.5 39q47 14 107 14q68 0 125 -16.5q57 -16.5 99 -41.5l0 -110q-43 26 -101.5 45.5q-58.5 19.5 -120.5 19.5q-38 0 -65.5 -7q-27.5 -7 -44.5 -19.5q-17 -12.5 -25 -28.5q-8 -16 -8 -34q0 -26 15 -42q15 -16 40 -27.5q25 -11.5 58.5 -21q33.5 -9.5 69.5 -20.5q42 -13 83 -29.5q41 -16.5 73 -41q32 -24.5 51.5 -59q19.5 -34.5 19.5 -84.5q0 -50 -21.5 -89q-21.5 -39 -58 -65.5q-36.5 -26.5 -85.5 -40.5t-104 -14z" />
<glyph unicode="&#84;" horiz-adv-x="639" d="M606 700v-101h-232v-599h-110v599h-231l0 101z" />
<glyph unicode="&#85;" horiz-adv-x="742" d="M371 -13q-63 0 -116.5 19.5q-53.5 19.5 -92.5 58.5q-39 39 -61.5 97q-22.5 58 -22.5 134v404h110v-408q0 -50 13.5 -88q13.5 -38 38 -63.5q24.5 -25.5 58 -38q33.5 -12.5 73.5 -12.5q40 0 74 12.5q34 12.5 58.5 38q24.5 25.5 38 63.5q13.5 38 13.5 88v408h110v-404q0 -76 -22.5 -134q-22.5 -58 -62 -97q-39.5 -39 -93.5 -58.5t-116 -19.5z" />
<glyph unicode="&#86;" horiz-adv-x="757" d="M26 700h122l232 -552l232 552h119l-300 -704l-104 0z" />
<glyph unicode="&#87;" horiz-adv-x="1065" d="M30 700h123l167 -526l170 527h87l170 -527l167 526h121l-239 -704h-97l-166 521l-167 -521l-98 0z" />
<glyph unicode="&#88;" horiz-adv-x="717" d="M294 379l-233 321h130l169 -232l169 232h128l-234 -319l278 -381h-131l-212 291l-213 -291l-128 0z" />
<glyph unicode="&#89;" horiz-adv-x="684" d="M287 317l-271 383h128l200 -283l200 283h124l-271 -380v-320l-110 0z" />
<glyph unicode="&#90;" horiz-adv-x="642" d="M41 78l394 521h-374v101h524v-77l-393 -522h409v-101l-560 0z" />
<glyph unicode="&#91;" horiz-adv-x="409" d="M87 706h284v-85h-186v-742h186v-85l-284 0z" />
<glyph unicode="&#92;" horiz-adv-x="522" d="M1 792h108l421 -932l-108 0z" />
<glyph unicode="&#93;" horiz-adv-x="409" d="M322 -206h-284v85h186v742h-186v85l284 0z" />
<glyph unicode="&#94;" horiz-adv-x="535" d="M216 728h103l172 -386h-103l-120 291l-121 -291l-103 0z" />
<glyph unicode="&#95;" horiz-adv-x="634" d="M6 -65h622v-74l-622 0z" />
<glyph unicode="&#96;" horiz-adv-x="522" d="M377 575h-98l-131 140l134 0z" />
<glyph unicode="&#97;" horiz-adv-x="597" d="M538 84q16 0 29 7l0 -82q-11 -8 -29 -12q-18 -4 -34 -4q-36 0 -64 16.5q-28 16.5 -39 53.5q-26 -30 -71 -53q-45 -23 -110 -23q-39 0 -72.5 11q-33.5 11 -58 32q-24.5 21 -39 52q-14.5 31 -14.5 70q0 41 16 71.5q16 30.5 43.5 51q27.5 20.5 63 30.5q35.5 10 74.5 10q56 0 93.5 -12q37.5 -12 63.5 -26l0 27q0 32 -12 52.5q-12 20.5 -31.5 32.5q-19.5 12 -46 17q-26.5 5 -54.5 5q-43 0 -85 -13.5q-42 -13.5 -70 -30.5l0 95q26 15 70 28.5q44 13.5 109 13.5q49 0 91 -12q42 -12 72 -35.5q30 -23.5 47 -59q17 -35.5 17 -81.5v-183q0 -23 11.5 -36q11.5 -13 29.5 -13zt0 0zM390 199q-24 14 -57.5 24.5q-33.5 10.5 -73.5 10.5q-54 0 -84.5 -20q-30.5 -20 -30.5 -56q0 -41 30.5 -59.5q30.5 -18.5 75.5 -18.5q45 0 82 18q37 18 58 41z" />
<glyph unicode="&#98;" horiz-adv-x="640" d="M360 -13q-64 0 -107.5 24q-43.5 24 -67.5 56l0 -67h-108v700h108v-276q24 32 67.5 56q43.5 24 107.5 24q53 0 96.5 -20.5q43.5 -20.5 75 -55.5q31.5 -35 49 -82q17.5 -47 17.5 -100q0 -53 -17.5 -100.5q-17.5 -47.5 -49 -82.5q-31.5 -35 -75 -55.5q-43.5 -20.5 -96.5 -20.5zt0 0zM331 82q34 0 63 13q29 13 50 35q21 22 33 52q12 30 12 64q0 34 -12 63.5q-12 29.5 -33 51.5q-21 22 -50 35q-29 13 -63 13q-51 0 -89 -26q-38 -26 -57 -61l0 -152q19 -37 57 -62.5t89 -25.5z" />
<glyph unicode="&#99;" horiz-adv-x="520" d="M307 -13q-54 0 -102 18.5q-48 18.5 -84 53q-36 34.5 -57.5 82q-21.5 47.5 -21.5 106.5q0 58 21.5 105q21.5 47 57.5 81q36 34 84.5 52.5q48.5 18.5 102.5 18.5q45 0 80 -8.5q35 -8.5 68 -25.5l0 -93q-32 16 -64 24q-32 8 -68 8q-36 0 -67.5 -12q-31.5 -12 -55.5 -33.5q-24 -21.5 -37.5 -51.5q-13.5 -30 -13.5 -66q0 -36 13.5 -66q13.5 -30 37.5 -52q24 -22 55.5 -34q31.5 -12 67.5 -12q42 0 75 9q33 9 65 28l0 -92q-35 -20 -72 -30t-85 -10z" />
<glyph unicode="&#100;" horiz-adv-x="640" d="M280 -13q-53 0 -96.5 20.5q-43.5 20.5 -75 55.5q-31.5 35 -49 82.5q-17.5 47.5 -17.5 100.5q0 53 17.5 100q17.5 47 49 82q31.5 35 75 55.5q43.5 20.5 96.5 20.5q64 0 107.5 -24q43.5 -24 67.5 -56l0 276h108v-700h-108v67q-24 -32 -67.5 -56q-43.5 -24 -107.5 -24zt0 0zM309 82q51 0 89 25.5q38 25.5 57 62.5l0 152q-19 35 -57 61q-38 26 -89 26q-35 0 -64 -13q-29 -13 -50 -35q-21 -22 -32.5 -51.5q-11.5 -29.5 -11.5 -63.5q0 -34 11.5 -64q11.5 -30 32.5 -52q21 -22 50 -35t64 -13z" />
<glyph unicode="&#101;" horiz-adv-x="572" d="M313 -13q-56 0 -105.5 18.5q-49.5 18.5 -86 52q-36.5 33.5 -58 81.5q-21.5 48 -21.5 107q0 54 18 101q18 47 51 82q33 35 79.5 55q46.5 20 103.5 20q59 0 102.5 -23q43.5 -23 72.5 -60q29 -37 43.5 -84q14.5 -47 14.5 -95v-28h-376q11 -63 61 -97.5q50 -34.5 124 -34.5q46 0 86 12q40 12 72 32l0 -91q-29 -21 -76.5 -34.5q-47.5 -13.5 -104.5 -13.5zt0 0zM418 296q0 20 -8 40.5q-8 20.5 -24 37.5q-16 17 -40 28q-24 11 -57 11q-31 0 -55.5 -10q-24.5 -10 -42 -26q-17.5 -16 -27.5 -37.5q-10 -21.5 -12 -43.5z" />
<glyph unicode="&#102;" horiz-adv-x="409" d="M115 0v396h-92v95h92v64q0 68 38 111.5q38 43.5 116 43.5q34 0 61.5 -5q27.5 -5 53.5 -16l0 -91q-20 8 -39.5 13q-19.5 5 -45.5 5q-76 0 -76 -80v-45h161v-95h-161l0 -396z" />
<glyph unicode="&#103;" horiz-adv-x="637" d="M563 491v-447q0 -64 -23.5 -111q-23.5 -47 -62 -77.5q-38.5 -30.5 -88 -45.5q-49.5 -15 -102.5 -15q-55 0 -107 12.5q-52 12.5 -85 31.5l0 99q38 -23 85 -35.5q47 -12.5 95 -12.5q34 0 66.5 7.5q32.5 7.5 58 25.5q25.5 18 40.5 47q15 29 15 72v37q-24 -30 -67.5 -53.5q-43.5 -23.5 -107.5 -23.5q-53 0 -96.5 20q-43.5 20 -75 54q-31.5 34 -49 80q-17.5 46 -17.5 98q0 51 17.5 96.5q17.5 45.5 49 79.5q31.5 34 75 54q43.5 20 96.5 20q64 0 107.5 -23q43.5 -23 67.5 -54l0 64zM309 97q50 0 88.5 24q38.5 24 57.5 60l0 143q-19 37 -57.5 61q-38.5 24 -88.5 24q-35 0 -64 -12q-29 -12 -50 -33q-21 -21 -32.5 -49.5q-11.5 -28.5 -11.5 -61.5q0 -33 11.5 -61.5q11.5 -28.5 32.5 -49.5q21 -21 50 -33t64 -12z" />
<glyph unicode="&#104;" horiz-adv-x="614" d="M77 0v700h108v-274q27 29 71.5 53.5q44.5 24.5 108.5 24.5q89 0 135.5 -55q46.5 -55 46.5 -149v-300h-108v276q0 40 -11 64.5q-11 24.5 -28 38.5q-17 14 -37.5 19q-20.5 5 -38.5 5q-21 0 -42 -6.5q-21 -6.5 -39 -17.5q-18 -11 -33 -25.5q-15 -14.5 -25 -30.5l0 -323z" />
<glyph unicode="&#105;" horiz-adv-x="280" d="M86 491h108v-491h-108zM140 579q-29 0 -48.5 19.5q-19.5 19.5 -19.5 48.5q0 29 19.5 49q19.5 20 48.5 20q29 0 48 -20q19 -20 19 -49q0 -29 -19 -48.5t-48 -19.5z" />
<glyph unicode="&#106;" horiz-adv-x="280" d="M31 -205q-24 0 -52.5 5q-28.5 5 -45.5 15l0 94q14 -8 32.5 -13.5q18.5 -5.5 39.5 -5.5q39 0 60 21.5q21 21.5 21 65.5v514h108v-526q0 -43 -12 -75q-12 -32 -34 -53q-22 -21 -51.5 -31.5q-29.5 -10.5 -65.5 -10.5zt0 0zM139 579q-29 0 -48.5 19.5q-19.5 19.5 -19.5 48.5q0 29 19.5 49q19.5 20 48.5 20q29 0 48.5 -20q19.5 -20 19.5 -49q0 -29 -19.5 -48.5t-48.5 -19.5z" />
<glyph unicode="&#107;" horiz-adv-x="571" d="M77 700h108v-395l194 186h138l-233 -220l268 -271h-148l-219 222v-222l-108 0z" />
<glyph unicode="&#108;" horiz-adv-x="306" d="M200 -13q-23 0 -45 6q-22 6 -39.5 20.5q-17.5 14.5 -28 39.5q-10.5 25 -10.5 63v584h108v-554q0 -32 15 -46q15 -14 39 -14q23 0 41 10l0 -93q-17 -8 -37.5 -12t-42.5 -4z" />
<glyph unicode="&#109;" horiz-adv-x="922" d="M77 491h108v-64q23 32 64 54.5q41 22.5 98 22.5q60 0 100 -25q40 -25 55 -63q25 36 71 62q46 26 108 26q79 0 126.5 -49q47.5 -49 47.5 -148v-307h-108v282q0 40 -10 63.5q-10 23.5 -25 36.5q-15 13 -32.5 17q-17.5 4 -32.5 4q-41 0 -75.5 -24q-34.5 -24 -50.5 -58l0 -321h-108v282q0 39 -10 63q-10 24 -25.5 37q-15.5 13 -33 17q-17.5 4 -32.5 4q-39 0 -74.5 -23q-35.5 -23 -52.5 -56l0 -324l-108 0z" />
<glyph unicode="&#110;" horiz-adv-x="614" d="M77 0v491h108v-65q27 29 71.5 53.5q44.5 24.5 108.5 24.5q89 0 135.5 -55q46.5 -55 46.5 -149v-300h-108v276q0 40 -11 64.5q-11 24.5 -27.5 38.5q-16.5 14 -37 19q-20.5 5 -39.5 5q-21 0 -42 -6.5q-21 -6.5 -39 -17.5q-18 -11 -33 -25.5q-15 -14.5 -25 -30.5l0 -323z" />
<glyph unicode="&#111;" horiz-adv-x="623" d="M312 82q35 0 64.5 12.5q29.5 12.5 51 34.5q21.5 22 33.5 52q12 30 12 65q0 34 -12 64q-12 30 -33.5 52q-21.5 22 -51 34.5q-29.5 12.5 -64.5 12.5q-35 0 -64.5 -12.5q-29.5 -12.5 -51.5 -34.5q-22 -22 -34 -52q-12 -30 -12 -64q0 -35 12 -65q12 -30 34 -52q22 -22 51.5 -34.5q29.5 -12.5 64.5 -12.5zt0 0zM312 -13q-60 0 -109.5 20.5q-49.5 20.5 -85.5 55.5q-36 35 -55.5 82.5q-19.5 47.5 -19.5 100.5q0 53 19.5 100q19.5 47 55.5 82q36 35 85.5 55.5q49.5 20.5 109.5 20.5q60 0 109.5 -20.5q49.5 -20.5 85 -55.5q35.5 -35 55 -82q19.5 -47 19.5 -100q0 -53 -19.5 -100.5q-19.5 -47.5 -55 -82.5q-35.5 -35 -85 -55.5t-109.5 -20.5z" />
<glyph unicode="&#112;" horiz-adv-x="640" d="M360 504q53 0 96.5 -20.5q43.5 -20.5 75 -56q31.5 -35.5 49 -82.5q17.5 -47 17.5 -100q0 -53 -17.5 -100q-17.5 -47 -49 -82q-31.5 -35 -75 -55.5q-43.5 -20.5 -96.5 -20.5q-64 0 -107.5 24q-43.5 24 -67.5 56l0 -267h-108v691h108v-67q24 32 67.5 56q43.5 24 107.5 24zt0 0zM331 409q-51 0 -89 -25.5q-38 -25.5 -57 -62.5l0 -152q19 -35 57 -61q38 -26 89 -26q34 0 63 13q29 13 50 35q21 22 33 51.5q12 29.5 12 63.5q0 34 -12 64q-12 30 -33 52q-21 22 -50 35t-63 13z" />
<glyph unicode="&#113;" horiz-adv-x="640" d="M280 504q64 0 107.5 -24q43.5 -24 67.5 -56l0 67h108v-691h-108v267q-24 -32 -67.5 -56q-43.5 -24 -107.5 -24q-53 0 -96.5 20.5q-43.5 20.5 -75 55.5q-31.5 35 -49 82q-17.5 47 -17.5 100q0 53 17.5 100q17.5 47 49 82.5q31.5 35.5 75 56q43.5 20.5 96.5 20.5zt0 0zM309 409q-35 0 -64 -13q-29 -13 -50 -35q-21 -22 -32.5 -52q-11.5 -30 -11.5 -64q0 -34 11.5 -63.5q11.5 -29.5 32.5 -51.5q21 -22 50 -35q29 -13 64 -13q51 0 89 26q38 26 57 61l0 152q-19 37 -57 62.5t-89 25.5z" />
<glyph unicode="&#114;" horiz-adv-x="397" d="M77 491h108v-85q25 43 74 70.5q49 27.5 107 27.5q6 0 10 -1l0 -108q-5 1 -12.5 1.5q-7.5 0.5 -17.5 0.5q-31 0 -57.5 -9q-26.5 -9 -47 -22.5q-20.5 -13.5 -35 -31q-14.5 -17.5 -21.5 -33.5l0 -301l-108 0z" />
<glyph unicode="&#115;" horiz-adv-x="512" d="M252 -13q-64 0 -119 14.5q-55 14.5 -86 35.5l0 102q13 -9 33 -19.5q20 -10.5 46 -19q26 -8.5 56.5 -14.5q30.5 -6 64.5 -6q52 0 80 16q28 16 28 42q0 16 -10.5 26.5q-10.5 10.5 -29.5 17q-19 6.5 -44 12q-25 5.5 -54 13.5q-39 10 -69.5 22q-30.5 12 -52 30q-21.5 18 -32.5 42.5q-11 24.5 -11 58.5q0 66 54 105q54 39 154 39q24 0 49.5 -3q25.5 -3 49.5 -8.5q24 -5.5 45 -14q21 -8.5 37 -18.5l0 -99q-33 19 -79.5 34.5q-46.5 15.5 -97.5 15.5q-53 0 -77 -15.5q-24 -15.5 -24 -38.5q0 -16 11.5 -26q11.5 -10 30.5 -17q19 -7 43 -12q24 -5 50 -11q36 -8 67 -20.5q31 -12.5 53.5 -31q22.5 -18.5 35 -44q12.5 -25.5 12.5 -59.5q0 -34 -15.5 -61.5q-15.5 -27.5 -44 -47q-28.5 -19.5 -67.5 -30t-87 -10.5z" />
<glyph unicode="&#116;" horiz-adv-x="436" d="M128 396h-105v95h105v143h108v-143h155v-95h-155v-231q0 -43 19.5 -61q19.5 -18 57.5 -18q21 0 40.5 5q19.5 5 33.5 13l0 -93q-17 -11 -49 -17.5q-32 -6.5 -60 -6.5q-67 0 -108.5 36q-41.5 36 -41.5 111z" />
<glyph unicode="&#117;" horiz-adv-x="615" d="M538 491v-491h-108v65q-27 -29 -71.5 -53.5q-44.5 -24.5 -108.5 -24.5q-89 0 -135.5 55q-46.5 55 -46.5 149v300h108v-276q0 -40 11 -64.5q11 -24.5 27.5 -38.5q16.5 -14 37 -19q20.5 -5 39.5 -5q21 0 42 6.5q21 6.5 39 17.5q18 11 33 25.5q15 14.5 25 30.5l0 323z" />
<glyph unicode="&#118;" horiz-adv-x="579" d="M20 491h119l153 -355l151 355h115l-220 -495l-98 0z" />
<glyph unicode="&#119;" horiz-adv-x="823" d="M28 491h110l115 -334l114 336h89l116 -336l114 334h109l-172 -495h-94l-119 339l-118 -339l-93 0z" />
<glyph unicode="&#120;" horiz-adv-x="568" d="M286 339l117 152h123l-178 -232l198 -259h-125l-137 179l-137 -179h-122l198 257l-178 234l125 0z" />
<glyph unicode="&#121;" horiz-adv-x="571" d="M127 -205q-27 0 -51 4q-24 4 -38 12l0 95q17 -8 33.5 -12q16.5 -4 37.5 -4q44 0 72.5 32.5q28.5 32.5 54.5 95.5l-215 473h120l148 -346l143 346h117l-235 -544q-32 -73 -77 -112.5t-110 -39.5z" />
<glyph unicode="&#122;" horiz-adv-x="516" d="M35 72l273 324h-255v95h411v-74l-273 -322h289v-95l-445 0z" />
<glyph unicode="&#123;" horiz-adv-x="389" d="M52 292q27 3 42 13.5q15 10.5 23 27.5q8 17 10 39q2 22 2 46v135q0 72 41 112.5q41 40.5 112 40.5h69v-85h-47q-37 0 -56.5 -21.5q-19.5 -21.5 -19.5 -56.5v-155q0 -52 -15.5 -87.5q-15.5 -35.5 -59.5 -50.5q44 -15 59.5 -50.5q15.5 -35.5 15.5 -87.5v-155q0 -35 19.5 -56.5q19.5 -21.5 56.5 -21.5h47v-85h-69q-71 0 -112 40.5q-41 40.5 -41 112.5v135q0 24 -2 46q-2 22 -10 39q-8 17 -23 27.5q-15 10.5 -42 13.5z" />
<glyph unicode="&#124;" horiz-adv-x="334" d="M118 760h98v-871l-98 0z" />
<glyph unicode="&#125;" horiz-adv-x="389" d="M337 208q-27 -3 -42 -13.5q-15 -10.5 -23 -27.5q-8 -17 -10 -39q-2 -22 -2 -46v-135q0 -72 -41 -112.5q-41 -40.5 -112 -40.5h-69v85h47q37 0 56.5 21.5q19.5 21.5 19.5 56.5v155q0 52 15.5 87.5q15.5 35.5 59.5 50.5q-44 15 -59.5 50.5q-15.5 35.5 -15.5 87.5v155q0 35 -19.5 56.5q-19.5 21.5 -56.5 21.5h-47v85h69q71 0 112 -40.5q41 -40.5 41 -112.5v-135q0 -24 2 -46q2 -22 10 -39q8 -17 23 -27.5q15 -10.5 42 -13.5l0 -84z" />
<glyph unicode="&#126;" horiz-adv-x="608" d="M427 184q-34 0 -64 8.5q-30 8.5 -59.5 18q-29.5 9.5 -59.5 18q-30 8.5 -64 8.5q-71 0 -112 -46l0 98q14 19 45 30.5q31 11.5 67 11.5q34 0 64.5 -8.5q30.5 -8.5 59.5 -18q29 -9.5 59 -18q30 -8.5 64 -8.5q72 0 113 46l0 -99q-14 -19 -45 -30t-68 -11z" />
<glyph unicode="&#161;" horiz-adv-x="310" d="M156 499q29 0 49.5 -20.5q20.5 -20.5 20.5 -49.5q0 -29 -20.5 -50q-20.5 -21 -49.5 -21q-29 0 -49.5 21q-20.5 21 -20.5 50q0 29 20.5 49.5q20.5 20.5 49.5 20.5zt0 0zM226 -200h-142l23 470l97 0z" />
<glyph unicode="&#162;" horiz-adv-x="520" d="M258 -117v109q-45 7 -84.5 28.5q-39.5 21.5 -69 54.5q-29.5 33 -46 76.5q-16.5 43.5 -16.5 95.5q0 51 16.5 94q16.5 43 46 75.5q29.5 32.5 69 54q39.5 21.5 84.5 29.5l0 108h91v-106q30 -3 55.5 -11q25.5 -8 51.5 -21l0 -93q-32 16 -64 24q-32 8 -68 8q-36 0 -67.5 -12q-31.5 -12 -55.5 -33.5q-24 -21.5 -37.5 -51.5q-13.5 -30 -13.5 -66q0 -36 13.5 -66q13.5 -30 37.5 -52q24 -22 55.5 -34q31.5 -12 67.5 -12q42 0 75 9q33 9 65 28l0 -92q-53 -31 -115 -38l0 -106z" />
<glyph unicode="&#163;" horiz-adv-x="585" d="M51 99h15q35 0 48 15.5q13 15.5 13 47.5v127h-76v89h76v103q0 111 65 171.5q65 60.5 177 60.5q47 0 86.5 -9.5q39.5 -9.5 74.5 -29.5l0 -104q-63 40 -144 40q-72 0 -110.5 -36.5q-38.5 -36.5 -38.5 -108.5v-87h249v-89h-249v-130q0 -25 -10 -40q-10 -15 -17 -20l332 0v-99l-491 0z" />
<glyph unicode="&#164;" horiz-adv-x="569" d="M49 163l65 66q-39 53 -39 122q0 69 39 122l-65 65l48 48l65 -65q25 19 56 29.5q31 10.5 66 10.5q35 0 66 -10.5q31 -10.5 56 -29.5l65 65l49 -48l-66 -65q39 -53 39 -122q0 -69 -39 -122l66 -66l-49 -47l-65 64q-25 -18 -56 -28.5q-31 -10.5 -66 -10.5q-35 0 -66 10.5q-31 10.5 -56 29.5l-65 -65zM284 223q27 0 50 10q23 10 40 27.5q17 17.5 26.5 40.5q9.5 23 9.5 50q0 27 -9.5 50q-9.5 23 -26.5 40.5q-17 17.5 -40 27.5q-23 10 -50 10q-27 0 -50 -10q-23 -10 -40 -27.5q-17 -17.5 -26.5 -40.5q-9.5 -23 -9.5 -50q0 -27 9.5 -50q9.5 -23 26.5 -40.5q17 -17.5 40 -27.5t50 -10z" />
<glyph unicode="&#165;" horiz-adv-x="652" d="M271 213v83h-203v78h167l-219 326h128l183 -283l185 283h123l-218 -326h167v-78h-203v-83h203v-78h-203v-135h-110v135h-203l0 78z" />
<glyph unicode="&#166;" horiz-adv-x="334" d="M118 242h98v-353h-98zM118 760h98v-353l-98 0z" />
<glyph unicode="&#167;" horiz-adv-x="646" d="M489 121q32 -22 51 -49.5q19 -27.5 19 -68.5q0 -38 -17 -68q-17 -30 -48.5 -52q-31.5 -22 -76 -33.5q-44.5 -11.5 -100.5 -11.5q-72 0 -129 17.5q-57 17.5 -92 36.5l0 108q44 -23 103 -42q59 -19 122 -19q63 0 94.5 19q31.5 19 31.5 50q0 19 -14 32.5q-14 13.5 -38 24q-24 10.5 -57 19.5q-33 9 -71 20q-45 13 -85 29.5q-40 16.5 -69.5 38.5q-29.5 22 -46.5 51.5q-17 29.5 -17 69.5q0 51 30.5 85q30.5 34 77.5 52q-32 22 -51 49.5q-19 27.5 -19 68.5q0 37 17 67.5q17 30.5 48.5 52.5q31.5 22 76 33.5q44.5 11.5 100.5 11.5q72 0 129 -17.5q57 -17.5 92 -36.5l0 -108q-44 23 -103 42q-59 19 -122 19q-63 0 -94.5 -19.5q-31.5 -19.5 -31.5 -48.5q0 -20 14 -33.5q14 -13.5 38 -24q24 -10.5 57 -19.5q33 -9 71 -20q45 -14 85 -30q40 -16 69.5 -38q29.5 -22 46.5 -51.5q17 -29.5 17 -69.5q0 -50 -30.5 -84.5q-30.5 -34.5 -77.5 -52.5zt0 0zM409 163q38 9 61 30.5q23 21.5 23 53.5q0 30 -24.5 50q-24.5 20 -62 35q-37.5 15 -82.5 27.5q-45 12.5 -87 28.5q-38 -8 -61 -29.5q-23 -21.5 -23 -54.5q0 -30 24 -50q24 -20 61.5 -35q37.5 -15 83 -27.5t87.5 -28.5z" />
<glyph unicode="&#168;" horiz-adv-x="522" d="M102 648q0 25 17.5 42.5q17.5 17.5 43.5 17.5q25 0 42 -17.5q17 -17.5 17 -42.5q0 -25 -17 -42.5q-17 -17.5 -42 -17.5q-26 0 -43.5 17.5q-17.5 17.5 -17.5 42.5zt0 0zM309 648q0 25 18 42.5q18 17.5 43 17.5q25 0 42 -17.5q17 -17.5 17 -42.5q0 -25 -17 -42.5q-17 -17.5 -42 -17.5q-25 0 -43 17.5t-18 42.5z" />
<glyph unicode="&#169;" horiz-adv-x="848" d="M423 -13q-76 0 -142 28.5q-66 28.5 -114.5 78q-48.5 49.5 -76.5 115.5q-28 66 -28 141q0 74 28.5 140q28.5 66 77.5 115.5q49 49.5 115 78.5q66 29 141 29q76 0 142 -28.5q66 -28.5 115 -78q49 -49.5 77 -115.5q28 -66 28 -141q0 -74 -28.5 -140q-28.5 -66 -77.5 -115.5q-49 -49.5 -115 -78.5q-66 -29 -142 -29zt0 0zM445 153q-43 0 -80 15.5q-37 15.5 -64.5 42q-27.5 26.5 -43 62.5q-15.5 36 -15.5 77q0 41 15.5 77q15.5 36 42.5 62.5q27 26.5 64 41.5q37 15 81 15q57 0 101 -23l0 -73q-21 14 -45 21.5q-24 7.5 -56 7.5q-27 0 -50.5 -9.5q-23.5 -9.5 -40.5 -26.5q-17 -17 -27 -41q-10 -24 -10 -52q0 -29 10 -52.5q10 -23.5 28 -40.5q18 -17 42 -26.5q24 -9.5 52 -9.5q29 0 56 8q27 8 50 26l0 -73q-46 -29 -110 -29zt0 0zM423 17q69 0 129 26.5q60 26.5 104.5 72q44.5 45.5 70 106q25.5 60.5 25.5 128.5q0 69 -25.5 129.5q-25.5 60.5 -69.5 105.5q-44 45 -104 71.5q-60 26.5 -129 26.5q-69 0 -129 -26.5q-60 -26.5 -104.5 -72q-44.5 -45.5 -70 -106q-25.5 -60.5 -25.5 -128.5q0 -69 25.5 -129.5q25.5 -60.5 70 -105.5q44.5 -45 104 -71.5t128.5 -26.5z" />
<glyph unicode="&#170;" horiz-adv-x="481" d="M212 504q-43 0 -66.5 -16q-23.5 -16 -23.5 -44q0 -33 24 -48q24 -15 59 -15q35 0 64.5 14.5q29.5 14.5 45.5 33.5l0 46q-18 11 -44.5 20q-26.5 9 -58.5 9zt0 0zM422 384q12 0 21 6l0 -59q-8 -5 -20.5 -8q-12.5 -3 -23.5 -3q-27 0 -48 12.5q-21 12.5 -28 41.5q-21 -23 -55 -40.5q-34 -17.5 -84 -17.5q-29 0 -54.5 8q-25.5 8 -44.5 24q-19 16 -30 39q-11 23 -11 53q0 30 12.5 53q12.5 23 33 38.5q20.5 15.5 47.5 23q27 7.5 57 7.5q43 0 72 -10q29 -10 49 -21l0 24q0 24 -9 40.5q-9 16.5 -24 26.5q-15 10 -35.5 14.5q-20.5 4.5 -42.5 4.5q-33 0 -65 -11q-32 -11 -52 -24l0 67q20 11 52.5 22q32.5 11 81.5 11q37 0 68 -9q31 -9 53.5 -26.5q22.5 -17.5 35.5 -43.5q13 -26 13 -61v-143q0 -18 8.5 -28.5t22.5 -10.5z" />
<glyph unicode="&#171;" horiz-adv-x="563" d="M35 218v55l144 181h110l-163 -208l163 -208h-110zM274 218v55l144 181h110l-162 -208l162 -208l-110 0z" />
<glyph unicode="&#172;" horiz-adv-x="582" d="M417 311h-349v97h446v-263l-97 0z" />
<glyph unicode="&#173;" horiz-adv-x="491" d="M98 324h295v-97l-295 0z" />
<glyph unicode="&#174;" horiz-adv-x="848" d="M423 -13q-76 0 -142 28.5q-66 28.5 -114.5 78q-48.5 49.5 -76.5 115.5q-28 66 -28 141q0 74 28.5 140q28.5 66 77.5 115.5q49 49.5 115 78.5q66 29 141 29q76 0 142 -28.5q66 -28.5 115 -78q49 -49.5 77 -115.5q28 -66 28 -141q0 -74 -28.5 -140q-28.5 -66 -77.5 -115.5q-49 -49.5 -115 -78.5q-66 -29 -142 -29zt0 0zM275 548h176q61 0 94.5 -31.5q33.5 -31.5 33.5 -80.5q0 -38 -20.5 -65.5q-20.5 -27.5 -59.5 -37.5l119 -165h-81l-113 156h-77v-156h-72zM447 384q29 0 44 13.5q15 13.5 15 36.5q0 52 -59 52h-100v-102zM423 17q69 0 129 26.5q60 26.5 104.5 72q44.5 45.5 70 106q25.5 60.5 25.5 128.5q0 69 -25.5 129.5q-25.5 60.5 -69.5 105.5q-44 45 -104 71.5q-60 26.5 -129 26.5q-69 0 -129 -26.5q-60 -26.5 -104.5 -72q-44.5 -45.5 -70 -106q-25.5 -60.5 -25.5 -128.5q0 -69 25.5 -129.5q25.5 -60.5 70 -105.5q44.5 -45 104 -71.5t128.5 -26.5z" />
<glyph unicode="&#175;" horiz-adv-x="513" d="M114 685h281v-77l-281 0z" />
<glyph unicode="&#176;" horiz-adv-x="410" d="M205 649q-38 0 -63.5 -26.5q-25.5 -26.5 -25.5 -64.5q0 -38 25.5 -64q25.5 -26 63.5 -26q38 0 63.5 26q25.5 26 25.5 64q0 38 -25.5 64.5q-25.5 26.5 -63.5 26.5zt0 0zM205 713q31 0 59.5 -12.5q28.5 -12.5 50 -33.5q21.5 -21 34 -49q12.5 -28 12.5 -60q0 -32 -12.5 -60q-12.5 -28 -34 -49q-21.5 -21 -50 -33q-28.5 -12 -59.5 -12q-32 0 -60 12q-28 12 -49.5 33q-21.5 21 -34 49q-12.5 28 -12.5 60q0 32 12.5 60q12.5 28 34 49q21.5 21 49.5 33.5t60 12.5z" />
<glyph unicode="&#177;" horiz-adv-x="631" d="M266 369h-198v97h198v169h98v-169h199v-97h-199v-167h-98zM68 132h495v-96l-495 0z" />
<glyph unicode="&#178;" horiz-adv-x="359" d="M40 386l111 96q37 32 51.5 53q14.5 21 14.5 43q0 21 -16 34q-16 13 -43 13q-29 0 -55.5 -11q-26.5 -11 -49.5 -29l0 88q22 16 50.5 25q28.5 9 61.5 9q27 0 52.5 -8q25.5 -8 45.5 -23q20 -15 32 -37q12 -22 12 -50q0 -20 -4.5 -37q-4.5 -17 -14.5 -34q-10 -17 -25.5 -34.5q-15.5 -17.5 -37.5 -37.5l-54 -50h148v-74l-279 0z" />
<glyph unicode="&#179;" horiz-adv-x="330" d="M145 315q-42 0 -70.5 8.5q-28.5 8.5 -50.5 21.5l0 82q21 -13 49 -23.5q28 -10.5 64 -10.5q31 0 54 15q23 15 23 41q0 23 -17.5 38.5q-17.5 15.5 -52.5 15.5q-17 0 -33 -3q-16 -3 -26 -8l0 55l91 79h-141v74h251v-66l-85 -75q15 -3 33 -10q18 -7 33.5 -20q15.5 -13 25.5 -33q10 -20 10 -49q0 -30 -12.5 -54.5q-12.5 -24.5 -34 -42q-21.5 -17.5 -50.5 -26.5t-61 -9z" />
<glyph unicode="&#180;" horiz-adv-x="476" d="M253 715h135l-132 -140l-98 0z" />
<glyph unicode="&#181;" horiz-adv-x="624" d="M547 491v-491h-108v65q-26 -29 -66.5 -53.5q-40.5 -24.5 -101.5 -24.5q-23 0 -46 6q-23 6 -39 17l0 -210h-109v691h109v-276q0 -40 11 -64.5q11 -24.5 27.5 -38.5q16.5 -14 36.5 -19q20 -5 39 -5q43 0 81 24q38 24 58 56l0 323z" />
<glyph unicode="&#182;" horiz-adv-x="550" d="M352 302h-81q-55 0 -98 14.5q-43 14.5 -72.5 41q-29.5 26.5 -45 63q-15.5 36.5 -15.5 80.5q0 44 15.5 80.5q15.5 36.5 45 63q29.5 26.5 72.5 41q43 14.5 98 14.5h191v-700l-110 0z" />
<glyph unicode="&#183;" horiz-adv-x="250" d="M126 315q-30 0 -50.5 20.5q-20.5 20.5 -20.5 50.5q0 29 20.5 49.5q20.5 20.5 50.5 20.5q29 0 49.5 -20.5q20.5 -20.5 20.5 -49.5q0 -30 -20.5 -50.5t-49.5 -20.5z" />
<glyph unicode="&#184;" horiz-adv-x="493" d="M230 8h88l-70 -146l-125 0z" />
<glyph unicode="&#185;" horiz-adv-x="253" d="M121 609l-102 -53v88l106 56h85v-378l-89 0z" />
<glyph unicode="&#186;" horiz-adv-x="456" d="M229 391q25 0 46.5 9q21.5 9 37.5 25.5q16 16.5 24.5 38.5q8.5 22 8.5 48q0 25 -8.5 47q-8.5 22 -24.5 38q-16 16 -37.5 25q-21.5 9 -46.5 9q-26 0 -47.5 -9q-21.5 -9 -37.5 -25q-16 -16 -24.5 -38q-8.5 -22 -8.5 -47q0 -52 33 -86.5q33 -34.5 85 -34.5zt0 0zM229 316q-45 0 -82.5 15q-37.5 15 -64.5 41.5q-27 26.5 -42 62q-15 35.5 -15 76.5q0 41 15 76.5q15 35.5 42 62q27 26.5 64.5 41.5q37.5 15 82.5 15q45 0 82 -15q37 -15 64 -41.5q27 -26.5 41.5 -62q14.5 -35.5 14.5 -76.5q0 -41 -14.5 -76.5q-14.5 -35.5 -41.5 -62q-27 -26.5 -64 -41.5t-82 -15z" />
<glyph unicode="&#187;" horiz-adv-x="563" d="M384 38h-110l163 208l-163 208h110l144 -181v-55zM145 38h-110l162 208l-162 208h110l144 -181l0 -55z" />
<glyph unicode="&#188;" horiz-adv-x="759" d="M523 700h91l-418 -700h-91zM121 609l-102 -53v88l106 56h85v-378h-89zM601 92h-191v63l187 223h90v-217h55v-69h-55v-92h-86zM601 161v118l-101 -118z" />
<glyph unicode="&#189;" horiz-adv-x="806" d="M523 700h91l-418 -700h-91zM121 609l-102 -53v88l106 56h85v-378h-89zM487 64l111 96q37 32 51.5 53q14.5 21 14.5 43q0 21 -16 34q-16 13 -43 13q-29 0 -55.5 -11q-26.5 -11 -49.5 -29l0 88q22 16 50.5 25q28.5 9 61.5 9q27 0 52.5 -8q25.5 -8 45.5 -23q20 -15 32 -37q12 -22 12 -50q0 -20 -4.5 -37q-4.5 -17 -14.5 -34q-10 -17 -25.5 -34.5q-15.5 -17.5 -37.5 -37.5l-54 -50h148v-74l-279 0z" />
<glyph unicode="&#190;" horiz-adv-x="805" d="M569 700h91l-418 -700h-91zM647 92h-191v63l187 223h90v-217h55v-69h-55v-92h-86zM647 161v118l-101 -118zM145 315q-42 0 -70.5 8.5q-28.5 8.5 -50.5 21.5l0 82q21 -13 49 -23.5q28 -10.5 64 -10.5q31 0 54 15q23 15 23 41q0 23 -17.5 38.5q-17.5 15.5 -52.5 15.5q-17 0 -33 -3q-16 -3 -26 -8l0 55l91 79h-141v74h251v-66l-85 -75q15 -3 33 -10q18 -7 33.5 -20q15.5 -13 25.5 -33q10 -20 10 -49q0 -30 -12.5 -54.5q-12.5 -24.5 -34 -42q-21.5 -17.5 -50.5 -26.5t-61 -9z" />
<glyph unicode="&#191;" horiz-adv-x="484" d="M268 499q30 0 50 -20.5q20 -20.5 20 -50.5q0 -29 -20 -49.5q-20 -20.5 -50 -20.5q-29 0 -49.5 20.5q-20.5 20.5 -20.5 49.5q0 30 20.5 50.5q20.5 20.5 49.5 20.5zt0 0zM323 131q-32 -6 -63.5 -18.5q-31.5 -12.5 -56 -30q-24.5 -17.5 -40 -40q-15.5 -22.5 -15.5 -49.5q0 -50 37 -75.5q37 -25.5 96 -25.5q54 0 97 17q43 17 78 39l0 -95q-37 -26 -87.5 -42q-50.5 -16 -105.5 -16q-45 0 -85.5 12.5q-40.5 12.5 -72 37q-31.5 24.5 -50 60.5q-18.5 36 -18.5 83q0 39 16 70.5q16 31.5 42 56q26 24.5 58.5 41.5q32.5 17 65.5 28l0 86l104 0z" />
<glyph unicode="&#192;" horiz-adv-x="762" d="M328 704h106l306 -704h-118l-76 174h-332l-75 -174h-117zM508 271l-128 294l-128 -294zM434 762h-99l-131 140l135 0z" />
<glyph unicode="&#193;" horiz-adv-x="762" d="M328 704h106l306 -704h-118l-76 174h-332l-75 -174h-117zM508 271l-128 294l-128 -294zM426 902h135l-131 -140l-99 0z" />
<glyph unicode="&#194;" horiz-adv-x="762" d="M328 704h106l306 -704h-118l-76 174h-332l-75 -174h-117zM508 271l-128 294l-128 -294zM440 902l114 -140h-101l-69 85l-69 -85h-101l114 140z" />
<glyph unicode="&#195;" horiz-adv-x="762" d="M328 704h106l306 -704h-118l-76 174h-332l-75 -174h-117zM508 271l-128 294l-128 -294zM210 770q0 26 7.5 49q7.5 23 21 40.5q13.5 17.5 32 27.5q18.5 10 41.5 10q20 0 38 -7.5q18 -7.5 34.5 -17q16.5 -9.5 32.5 -17q16 -7.5 31 -7.5q20 0 28.5 14.5q8.5 14.5 11.5 31.5l65 0q0 -26 -7.5 -49q-7.5 -23 -20.5 -40q-13 -17 -32 -27.5q-19 -10.5 -42 -10.5q-20 0 -38 7.5q-18 7.5 -34.5 17q-16.5 9.5 -32 17q-15.5 7.5 -30.5 7.5q-20 0 -29 -14q-9 -14 -12 -32z" />
<glyph unicode="&#196;" horiz-adv-x="762" d="M328 704h106l306 -704h-118l-76 174h-332l-75 -174h-117zM508 271l-128 294l-128 -294zM218 831q0 25 17.5 42.5q17.5 17.5 43.5 17.5q25 0 42 -17.5q17 -17.5 17 -42.5q0 -25 -17 -42.5q-17 -17.5 -42 -17.5q-26 0 -43.5 17.5q-17.5 17.5 -17.5 42.5zt0 0zM425 831q0 25 18 42.5q18 17.5 43 17.5q25 0 42 -17.5q17 -17.5 17 -42.5q0 -25 -17 -42.5q-17 -17.5 -42 -17.5q-25 0 -43 17.5t-18 42.5z" />
<glyph unicode="&#197;" horiz-adv-x="762" d="M328 704h106l306 -704h-118l-76 174h-332l-75 -174h-117zM508 271l-128 294l-128 -294zM382 735q-42 0 -70.5 28.5q-28.5 28.5 -28.5 69.5q0 20 7.5 38q7.5 18 21 31.5q13.5 13.5 31.5 21.5q18 8 39 8q20 0 37.5 -8q17.5 -8 31 -21.5q13.5 -13.5 21.5 -31.5q8 -18 8 -38q0 -20 -8 -38q-8 -18 -21.5 -31.5q-13.5 -13.5 -31 -21q-17.5 -7.5 -37.5 -7.5zt0 0zM382 783q20 0 35 14.5q15 14.5 15 35.5q0 21 -15 36q-15 15 -35 15q-22 0 -36.5 -15q-14.5 -15 -14.5 -36q0 -21 14.5 -35.5t36.5 -14.5z" />
<glyph unicode="&#198;" horiz-adv-x="1048" d="M501 174h-270l-102 -174h-122l411 700h574v-101h-381v-175h309v-101h-309v-222h394v-101h-504zM288 271h213v328l-21 0z" />
<glyph unicode="&#199;" horiz-adv-x="684" d="M384 -10q-69 7 -128 36.5q-59 29.5 -102 77q-43 47.5 -67.5 110q-24.5 62.5 -24.5 136.5q0 79 28 146q28 67 77.5 115q49.5 48 117 75q67.5 27 146.5 27q108 0 190 -47l0 -111q-41 26 -85.5 40.5q-44.5 14.5 -103.5 14.5q-55 0 -102 -19.5q-47 -19.5 -81.5 -54q-34.5 -34.5 -54 -82q-19.5 -47.5 -19.5 -104.5q0 -57 20 -105q20 -48 55 -82.5q35 -34.5 82.5 -53.5q47.5 -19 103.5 -19q57 0 107 15q50 15 93 49l0 -111q-68 -44 -159 -53l-61 -128l-125 0z" />
<glyph unicode="&#200;" horiz-adv-x="641" d="M87 700h498v-101h-388v-175h316v-101h-316v-222h401v-101h-511zM404 762h-99l-131 140l135 0z" />
<glyph unicode="&#201;" horiz-adv-x="641" d="M87 700h498v-101h-388v-175h316v-101h-316v-222h401v-101h-511zM354 902h135l-131 -140l-99 0z" />
<glyph unicode="&#202;" horiz-adv-x="641" d="M87 700h498v-101h-388v-175h316v-101h-316v-222h401v-101h-511zM401 902l114 -140h-101l-69 85l-69 -85h-101l114 140z" />
<glyph unicode="&#203;" horiz-adv-x="641" d="M87 700h498v-101h-388v-175h316v-101h-316v-222h401v-101h-511zM172 831q0 25 17.5 42.5q17.5 17.5 43.5 17.5q25 0 42 -17.5q17 -17.5 17 -42.5q0 -25 -17 -42.5q-17 -17.5 -42 -17.5q-26 0 -43.5 17.5q-17.5 17.5 -17.5 42.5zt0 0zM379 831q0 25 18 42.5q18 17.5 43 17.5q25 0 42 -17.5q17 -17.5 17 -42.5q0 -25 -17 -42.5q-17 -17.5 -42 -17.5q-25 0 -43 17.5t-18 42.5z" />
<glyph unicode="&#204;" horiz-adv-x="295" d="M92 700h110v-700h-110zM198 762h-99l-131 140l135 0z" />
<glyph unicode="&#205;" horiz-adv-x="295" d="M92 700h110v-700h-110zM192 902h135l-131 -140l-99 0z" />
<glyph unicode="&#206;" horiz-adv-x="295" d="M92 700h110v-700h-110zM206 902l114 -140h-101l-69 85l-69 -85h-101l114 140z" />
<glyph unicode="&#207;" horiz-adv-x="293" d="M92 700h110v-700h-110zM-17 831q0 25 17.5 42.5q17.5 17.5 43.5 17.5q25 0 42 -17.5q17 -17.5 17 -42.5q0 -25 -17 -42.5q-17 -17.5 -42 -17.5q-26 0 -43.5 17.5q-17.5 17.5 -17.5 42.5zt0 0zM190 831q0 25 18 42.5q18 17.5 43 17.5q25 0 42 -17.5q17 -17.5 17 -42.5q0 -25 -17 -42.5q-17 -17.5 -42 -17.5q-25 0 -43 17.5t-18 42.5z" />
<glyph unicode="&#208;" horiz-adv-x="828" d="M137 312h-103v99h103v289h247q85 0 155 -25.5q70 -25.5 120.5 -72q50.5 -46.5 78.5 -110.5q28 -64 28 -142q0 -78 -28 -142q-28 -64 -78.5 -110.5q-50.5 -46.5 -120.5 -72q-70 -25.5 -155 -25.5h-247zM374 101q66 0 117.5 17.5q51.5 17.5 87.5 49.5q36 32 55 78.5q19 46.5 19 103.5q0 57 -19 103.5q-19 46.5 -55 78.5q-36 32 -87.5 49.5q-51.5 17.5 -117.5 17.5h-127v-188h151v-99h-151l0 -211z" />
<glyph unicode="&#209;" horiz-adv-x="773" d="M87 700h96l395 -507v507h108v-700h-93l-398 509v-509h-108zM215 770q0 26 7.5 49q7.5 23 21 40.5q13.5 17.5 32 27.5q18.5 10 41.5 10q20 0 38 -7.5q18 -7.5 34.5 -17q16.5 -9.5 32.5 -17q16 -7.5 31 -7.5q20 0 28.5 14.5q8.5 14.5 11.5 31.5l65 0q0 -26 -7.5 -49q-7.5 -23 -20.5 -40q-13 -17 -32 -27.5q-19 -10.5 -42 -10.5q-20 0 -38 7.5q-18 7.5 -34.5 17q-16.5 9.5 -32 17q-15.5 7.5 -30.5 7.5q-20 0 -29 -14q-9 -14 -12 -32z" />
<glyph unicode="&#210;" horiz-adv-x="839" d="M419 90q52 0 97 19.5q45 19.5 78 54.5q33 35 51.5 82.5q18.5 47.5 18.5 103.5q0 56 -18.5 103.5q-18.5 47.5 -51.5 82.5q-33 35 -78 54.5q-45 19.5 -97 19.5q-52 0 -96.5 -19.5q-44.5 -19.5 -77.5 -54.5q-33 -35 -51.5 -82.5q-18.5 -47.5 -18.5 -103.5q0 -56 18.5 -103.5q18.5 -47.5 51.5 -82.5q33 -35 77.5 -54.5q44.5 -19.5 96.5 -19.5zt0 0zM419 -13q-77 0 -142.5 28q-65.5 28 -113 77q-47.5 49 -74.5 115q-27 66 -27 143q0 76 27 142.5q27 66.5 74.5 115.5q47.5 49 113 77q65.5 28 142.5 28q77 0 142.5 -28q65.5 -28 113.5 -77q48 -49 75 -115.5q27 -66.5 27 -142.5q0 -77 -27 -143q-27 -66 -75 -115q-48 -49 -113.5 -77q-65.5 -28 -142.5 -28zt0 0zM479 762h-99l-131 140l135 0z" />
<glyph unicode="&#211;" horiz-adv-x="839" d="M419 90q52 0 97 19.5q45 19.5 78 54.5q33 35 51.5 82.5q18.5 47.5 18.5 103.5q0 56 -18.5 103.5q-18.5 47.5 -51.5 82.5q-33 35 -78 54.5q-45 19.5 -97 19.5q-52 0 -96.5 -19.5q-44.5 -19.5 -77.5 -54.5q-33 -35 -51.5 -82.5q-18.5 -47.5 -18.5 -103.5q0 -56 18.5 -103.5q18.5 -47.5 51.5 -82.5q33 -35 77.5 -54.5q44.5 -19.5 96.5 -19.5zt0 0zM419 -13q-77 0 -142.5 28q-65.5 28 -113 77q-47.5 49 -74.5 115q-27 66 -27 143q0 76 27 142.5q27 66.5 74.5 115.5q47.5 49 113 77q65.5 28 142.5 28q77 0 142.5 -28q65.5 -28 113.5 -77q48 -49 75 -115.5q27 -66.5 27 -142.5q0 -77 -27 -143q-27 -66 -75 -115q-48 -49 -113.5 -77q-65.5 -28 -142.5 -28zt0 0zM450 902h135l-131 -140l-99 0z" />
<glyph unicode="&#212;" horiz-adv-x="839" d="M419 90q52 0 97 19.5q45 19.5 78 54.5q33 35 51.5 82.5q18.5 47.5 18.5 103.5q0 56 -18.5 103.5q-18.5 47.5 -51.5 82.5q-33 35 -78 54.5q-45 19.5 -97 19.5q-52 0 -96.5 -19.5q-44.5 -19.5 -77.5 -54.5q-33 -35 -51.5 -82.5q-18.5 -47.5 -18.5 -103.5q0 -56 18.5 -103.5q18.5 -47.5 51.5 -82.5q33 -35 77.5 -54.5q44.5 -19.5 96.5 -19.5zt0 0zM419 -13q-77 0 -142.5 28q-65.5 28 -113 77q-47.5 49 -74.5 115q-27 66 -27 143q0 76 27 142.5q27 66.5 74.5 115.5q47.5 49 113 77q65.5 28 142.5 28q77 0 142.5 -28q65.5 -28 113.5 -77q48 -49 75 -115.5q27 -66.5 27 -142.5q0 -77 -27 -143q-27 -66 -75 -115q-48 -49 -113.5 -77q-65.5 -28 -142.5 -28zt0 0zM478 902l114 -140h-101l-69 85l-69 -85h-101l114 140z" />
<glyph unicode="&#213;" horiz-adv-x="839" d="M419 90q52 0 97 19.5q45 19.5 78 54.5q33 35 51.5 82.5q18.5 47.5 18.5 103.5q0 56 -18.5 103.5q-18.5 47.5 -51.5 82.5q-33 35 -78 54.5q-45 19.5 -97 19.5q-52 0 -96.5 -19.5q-44.5 -19.5 -77.5 -54.5q-33 -35 -51.5 -82.5q-18.5 -47.5 -18.5 -103.5q0 -56 18.5 -103.5q18.5 -47.5 51.5 -82.5q33 -35 77.5 -54.5q44.5 -19.5 96.5 -19.5zt0 0zM419 -13q-77 0 -142.5 28q-65.5 28 -113 77q-47.5 49 -74.5 115q-27 66 -27 143q0 76 27 142.5q27 66.5 74.5 115.5q47.5 49 113 77q65.5 28 142.5 28q77 0 142.5 -28q65.5 -28 113.5 -77q48 -49 75 -115.5q27 -66.5 27 -142.5q0 -77 -27 -143q-27 -66 -75 -115q-48 -49 -113.5 -77q-65.5 -28 -142.5 -28zt0 0zM248 770q0 26 7.5 49q7.5 23 21 40.5q13.5 17.5 32 27.5q18.5 10 41.5 10q20 0 38 -7.5q18 -7.5 34.5 -17q16.5 -9.5 32.5 -17q16 -7.5 31 -7.5q20 0 28.5 14.5q8.5 14.5 11.5 31.5l65 0q0 -26 -7.5 -49q-7.5 -23 -20.5 -40q-13 -17 -32 -27.5q-19 -10.5 -42 -10.5q-20 0 -38 7.5q-18 7.5 -34.5 17q-16.5 9.5 -32 17q-15.5 7.5 -30.5 7.5q-20 0 -29 -14q-9 -14 -12 -32z" />
<glyph unicode="&#214;" horiz-adv-x="839" d="M419 90q52 0 97 19.5q45 19.5 78 54.5q33 35 51.5 82.5q18.5 47.5 18.5 103.5q0 56 -18.5 103.5q-18.5 47.5 -51.5 82.5q-33 35 -78 54.5q-45 19.5 -97 19.5q-52 0 -96.5 -19.5q-44.5 -19.5 -77.5 -54.5q-33 -35 -51.5 -82.5q-18.5 -47.5 -18.5 -103.5q0 -56 18.5 -103.5q18.5 -47.5 51.5 -82.5q33 -35 77.5 -54.5q44.5 -19.5 96.5 -19.5zt0 0zM419 -13q-77 0 -142.5 28q-65.5 28 -113 77q-47.5 49 -74.5 115q-27 66 -27 143q0 76 27 142.5q27 66.5 74.5 115.5q47.5 49 113 77q65.5 28 142.5 28q77 0 142.5 -28q65.5 -28 113.5 -77q48 -49 75 -115.5q27 -66.5 27 -142.5q0 -77 -27 -143q-27 -66 -75 -115q-48 -49 -113.5 -77q-65.5 -28 -142.5 -28zt0 0zM256 831q0 25 17.5 42.5q17.5 17.5 43.5 17.5q25 0 42 -17.5q17 -17.5 17 -42.5q0 -25 -17 -42.5q-17 -17.5 -42 -17.5q-26 0 -43.5 17.5q-17.5 17.5 -17.5 42.5zt0 0zM463 831q0 25 18 42.5q18 17.5 43 17.5q25 0 42 -17.5q17 -17.5 17 -42.5q0 -25 -17 -42.5q-17 -17.5 -42 -17.5q-25 0 -43 17.5t-18 42.5z" />
<glyph unicode="&#215;" horiz-adv-x="574" d="M68 178l151 150l-151 152l69 68l150 -151l151 151l68 -68l-150 -152l150 -150l-68 -68l-150 150l-151 -150z" />
<glyph unicode="&#216;" horiz-adv-x="839" d="M419 -13q-59 0 -110 16q-51 16 -94 45l-39 -48h-90l76 93q-48 49 -74 114.5q-26 65.5 -26 142.5q0 76 27 142.5q27 66.5 74.5 115.5q47.5 49 113 77q65.5 28 142.5 28q58 0 109 -16q51 -16 94 -45l40 48h91l-77 -93q48 -49 74.5 -115q26.5 -66 26.5 -142q0 -77 -27 -143q-27 -66 -75 -115q-48 -49 -113.5 -77q-65.5 -28 -142.5 -28zt0 0zM419 90q52 0 97 19.5q45 19.5 78 54.5q33 35 51.5 82.5q18.5 47.5 18.5 103.5q0 51 -15.5 94.5q-15.5 43.5 -42.5 77.5l-322 -391q29 -20 63 -30.5q34 -10.5 72 -10.5zt0 0zM175 350q0 -51 15 -94.5q15 -43.5 42 -77.5l322 391q-29 20 -63 30.5q-34 10.5 -72 10.5q-52 0 -96.5 -19.5q-44.5 -19.5 -77.5 -54.5q-33 -35 -51.5 -82.5t-18.5 -103.5z" />
<glyph unicode="&#217;" horiz-adv-x="742" d="M371 -13q-63 0 -116.5 19.5q-53.5 19.5 -92.5 58.5q-39 39 -61.5 97q-22.5 58 -22.5 134v404h110v-408q0 -50 13.5 -88q13.5 -38 38 -63.5q24.5 -25.5 58 -38q33.5 -12.5 73.5 -12.5q40 0 74 12.5q34 12.5 58.5 38q24.5 25.5 38 63.5q13.5 38 13.5 88v408h110v-404q0 -76 -22.5 -134q-22.5 -58 -62 -97q-39.5 -39 -93.5 -58.5q-54 -19.5 -116 -19.5zt0 0zM430 762h-99l-131 140l135 0z" />
<glyph unicode="&#218;" horiz-adv-x="742" d="M371 -13q-63 0 -116.5 19.5q-53.5 19.5 -92.5 58.5q-39 39 -61.5 97q-22.5 58 -22.5 134v404h110v-408q0 -50 13.5 -88q13.5 -38 38 -63.5q24.5 -25.5 58 -38q33.5 -12.5 73.5 -12.5q40 0 74 12.5q34 12.5 58.5 38q24.5 25.5 38 63.5q13.5 38 13.5 88v408h110v-404q0 -76 -22.5 -134q-22.5 -58 -62 -97q-39.5 -39 -93.5 -58.5q-54 -19.5 -116 -19.5zt0 0zM411 902h135l-131 -140l-99 0z" />
<glyph unicode="&#219;" horiz-adv-x="742" d="M371 -13q-63 0 -116.5 19.5q-53.5 19.5 -92.5 58.5q-39 39 -61.5 97q-22.5 58 -22.5 134v404h110v-408q0 -50 13.5 -88q13.5 -38 38 -63.5q24.5 -25.5 58 -38q33.5 -12.5 73.5 -12.5q40 0 74 12.5q34 12.5 58.5 38q24.5 25.5 38 63.5q13.5 38 13.5 88v408h110v-404q0 -76 -22.5 -134q-22.5 -58 -62 -97q-39.5 -39 -93.5 -58.5q-54 -19.5 -116 -19.5zt0 0zM430 902l114 -140h-101l-69 85l-69 -85h-101l114 140z" />
<glyph unicode="&#220;" horiz-adv-x="742" d="M371 -13q-63 0 -116.5 19.5q-53.5 19.5 -92.5 58.5q-39 39 -61.5 97q-22.5 58 -22.5 134v404h110v-408q0 -50 13.5 -88q13.5 -38 38 -63.5q24.5 -25.5 58 -38q33.5 -12.5 73.5 -12.5q40 0 74 12.5q34 12.5 58.5 38q24.5 25.5 38 63.5q13.5 38 13.5 88v408h110v-404q0 -76 -22.5 -134q-22.5 -58 -62 -97q-39.5 -39 -93.5 -58.5q-54 -19.5 -116 -19.5zt0 0zM209 831q0 25 17.5 42.5q17.5 17.5 43.5 17.5q25 0 42 -17.5q17 -17.5 17 -42.5q0 -25 -17 -42.5q-17 -17.5 -42 -17.5q-26 0 -43.5 17.5q-17.5 17.5 -17.5 42.5zt0 0zM416 831q0 25 18 42.5q18 17.5 43 17.5q25 0 42 -17.5q17 -17.5 17 -42.5q0 -25 -17 -42.5q-17 -17.5 -42 -17.5q-25 0 -43 17.5t-18 42.5z" />
<glyph unicode="&#221;" horiz-adv-x="684" d="M287 317l-271 383h128l200 -283l200 283h124l-271 -380v-320h-110zM379 902h135l-131 -140l-99 0z" />
<glyph unicode="&#222;" horiz-adv-x="662" d="M87 700h110v-146h191q55 0 98.5 -15q43.5 -15 73.5 -42q30 -27 46 -64q16 -37 16 -82q0 -45 -16 -83q-16 -38 -46 -66q-30 -28 -73.5 -43.5q-43.5 -15.5 -98.5 -15.5h-191v-143h-110zM379 244q63 0 97.5 27q34.5 27 34.5 78q0 51 -34.5 77.5q-34.5 26.5 -97.5 26.5h-182l0 -209z" />
<glyph unicode="&#223;" horiz-adv-x="621" d="M362 -13q-26 0 -50 3q-24 3 -41 11l0 95q31 -14 71 -14q58 0 95.5 31.5q37.5 31.5 37.5 86.5q0 60 -44.5 96.5q-44.5 36.5 -121.5 36.5h-19v92h19q53 0 83 25q30 25 30 70q0 44 -31.5 70q-31.5 26 -82.5 26q-53 0 -88 -34.5q-35 -34.5 -35 -99.5v-482h-108v481q0 54 17 96.5q17 42.5 47.5 72q30.5 29.5 72.5 45q42 15.5 92 15.5q52 0 93 -14.5q41 -14.5 69 -39q28 -24.5 42.5 -58q14.5 -33.5 14.5 -71.5q0 -30 -8 -53.5q-8 -23.5 -21.5 -41.5q-13.5 -18 -31.5 -29.5q-18 -11.5 -37 -17.5q28 -6 55.5 -21.5q27.5 -15.5 49 -39.5q21.5 -24 34.5 -57.5q13 -33.5 13 -75.5q0 -49 -16.5 -87q-16.5 -38 -46 -64q-29.5 -26 -69 -39.5t-85.5 -13.5z" />
<glyph unicode="&#224;" horiz-adv-x="597" d="M538 84q16 0 29 7l0 -82q-11 -8 -29 -12q-18 -4 -34 -4q-36 0 -64 16.5q-28 16.5 -39 53.5q-26 -30 -71 -53q-45 -23 -110 -23q-39 0 -72.5 11q-33.5 11 -58 32q-24.5 21 -39 52q-14.5 31 -14.5 70q0 41 16 71.5q16 30.5 43.5 51q27.5 20.5 63 30.5q35.5 10 74.5 10q56 0 93.5 -12q37.5 -12 63.5 -26l0 27q0 32 -12 52.5q-12 20.5 -31.5 32.5q-19.5 12 -46 17q-26.5 5 -54.5 5q-43 0 -85 -13.5q-42 -13.5 -70 -30.5l0 95q26 15 70 28.5q44 13.5 109 13.5q49 0 91 -12q42 -12 72 -35.5q30 -23.5 47 -59q17 -35.5 17 -81.5v-183q0 -23 11.5 -36q11.5 -13 29.5 -13zt0 0zM390 199q-24 14 -57.5 24.5q-33.5 10.5 -73.5 10.5q-54 0 -84.5 -20q-30.5 -20 -30.5 -56q0 -41 30.5 -59.5q30.5 -18.5 75.5 -18.5q45 0 82 18q37 18 58 41zM357 575h-98l-131 140l134 0z" />
<glyph unicode="&#225;" horiz-adv-x="597" d="M538 84q16 0 29 7l0 -82q-11 -8 -29 -12q-18 -4 -34 -4q-36 0 -64 16.5q-28 16.5 -39 53.5q-26 -30 -71 -53q-45 -23 -110 -23q-39 0 -72.5 11q-33.5 11 -58 32q-24.5 21 -39 52q-14.5 31 -14.5 70q0 41 16 71.5q16 30.5 43.5 51q27.5 20.5 63 30.5q35.5 10 74.5 10q56 0 93.5 -12q37.5 -12 63.5 -26l0 27q0 32 -12 52.5q-12 20.5 -31.5 32.5q-19.5 12 -46 17q-26.5 5 -54.5 5q-43 0 -85 -13.5q-42 -13.5 -70 -30.5l0 95q26 15 70 28.5q44 13.5 109 13.5q49 0 91 -12q42 -12 72 -35.5q30 -23.5 47 -59q17 -35.5 17 -81.5v-183q0 -23 11.5 -36q11.5 -13 29.5 -13zt0 0zM390 199q-24 14 -57.5 24.5q-33.5 10.5 -73.5 10.5q-54 0 -84.5 -20q-30.5 -20 -30.5 -56q0 -41 30.5 -59.5q30.5 -18.5 75.5 -18.5q45 0 82 18q37 18 58 41zM299 715h135l-132 -140l-98 0z" />
<glyph unicode="&#226;" horiz-adv-x="597" d="M538 84q16 0 29 7l0 -82q-11 -8 -29 -12q-18 -4 -34 -4q-36 0 -64 16.5q-28 16.5 -39 53.5q-26 -30 -71 -53q-45 -23 -110 -23q-39 0 -72.5 11q-33.5 11 -58 32q-24.5 21 -39 52q-14.5 31 -14.5 70q0 41 16 71.5q16 30.5 43.5 51q27.5 20.5 63 30.5q35.5 10 74.5 10q56 0 93.5 -12q37.5 -12 63.5 -26l0 27q0 32 -12 52.5q-12 20.5 -31.5 32.5q-19.5 12 -46 17q-26.5 5 -54.5 5q-43 0 -85 -13.5q-42 -13.5 -70 -30.5l0 95q26 15 70 28.5q44 13.5 109 13.5q49 0 91 -12q42 -12 72 -35.5q30 -23.5 47 -59q17 -35.5 17 -81.5v-183q0 -23 11.5 -36q11.5 -13 29.5 -13zt0 0zM390 199q-24 14 -57.5 24.5q-33.5 10.5 -73.5 10.5q-54 0 -84.5 -20q-30.5 -20 -30.5 -56q0 -41 30.5 -59.5q30.5 -18.5 75.5 -18.5q45 0 82 18q37 18 58 41zM336 715l114 -140h-101l-69 85l-69 -85h-101l114 140z" />
<glyph unicode="&#227;" horiz-adv-x="597" d="M538 84q16 0 29 7l0 -82q-11 -8 -29 -12q-18 -4 -34 -4q-36 0 -64 16.5q-28 16.5 -39 53.5q-26 -30 -71 -53q-45 -23 -110 -23q-39 0 -72.5 11q-33.5 11 -58 32q-24.5 21 -39 52q-14.5 31 -14.5 70q0 41 16 71.5q16 30.5 43.5 51q27.5 20.5 63 30.5q35.5 10 74.5 10q56 0 93.5 -12q37.5 -12 63.5 -26l0 27q0 32 -12 52.5q-12 20.5 -31.5 32.5q-19.5 12 -46 17q-26.5 5 -54.5 5q-43 0 -85 -13.5q-42 -13.5 -70 -30.5l0 95q26 15 70 28.5q44 13.5 109 13.5q49 0 91 -12q42 -12 72 -35.5q30 -23.5 47 -59q17 -35.5 17 -81.5v-183q0 -23 11.5 -36q11.5 -13 29.5 -13zt0 0zM390 199q-24 14 -57.5 24.5q-33.5 10.5 -73.5 10.5q-54 0 -84.5 -20q-30.5 -20 -30.5 -56q0 -41 30.5 -59.5q30.5 -18.5 75.5 -18.5q45 0 82 18q37 18 58 41zM117 585q0 26 7.5 49.5q7.5 23.5 21 41q13.5 17.5 32 27.5q18.5 10 41.5 10q20 0 37.5 -7.5q17.5 -7.5 34 -17q16.5 -9.5 32.5 -17q16 -7.5 31 -7.5q20 0 29 14q9 14 12 32l65 0q0 -26 -7.5 -49q-7.5 -23 -21 -40.5q-13.5 -17.5 -32 -28q-18.5 -10.5 -41.5 -10.5q-20 0 -38 7.5q-18 7.5 -34.5 17q-16.5 9.5 -32 17q-15.5 7.5 -31.5 7.5q-20 0 -28.5 -14q-8.5 -14 -11.5 -32z" />
<glyph unicode="&#228;" horiz-adv-x="597" d="M538 84q16 0 29 7l0 -82q-11 -8 -29 -12q-18 -4 -34 -4q-36 0 -64 16.5q-28 16.5 -39 53.5q-26 -30 -71 -53q-45 -23 -110 -23q-39 0 -72.5 11q-33.5 11 -58 32q-24.5 21 -39 52q-14.5 31 -14.5 70q0 41 16 71.5q16 30.5 43.5 51q27.5 20.5 63 30.5q35.5 10 74.5 10q56 0 93.5 -12q37.5 -12 63.5 -26l0 27q0 32 -12 52.5q-12 20.5 -31.5 32.5q-19.5 12 -46 17q-26.5 5 -54.5 5q-43 0 -85 -13.5q-42 -13.5 -70 -30.5l0 95q26 15 70 28.5q44 13.5 109 13.5q49 0 91 -12q42 -12 72 -35.5q30 -23.5 47 -59q17 -35.5 17 -81.5v-183q0 -23 11.5 -36q11.5 -13 29.5 -13zt0 0zM390 199q-24 14 -57.5 24.5q-33.5 10.5 -73.5 10.5q-54 0 -84.5 -20q-30.5 -20 -30.5 -56q0 -41 30.5 -59.5q30.5 -18.5 75.5 -18.5q45 0 82 18q37 18 58 41zM121 648q0 25 17.5 42.5q17.5 17.5 43.5 17.5q25 0 42 -17.5q17 -17.5 17 -42.5q0 -25 -17 -42.5q-17 -17.5 -42 -17.5q-26 0 -43.5 17.5q-17.5 17.5 -17.5 42.5zt0 0zM328 648q0 25 18 42.5q18 17.5 43 17.5q25 0 42 -17.5q17 -17.5 17 -42.5q0 -25 -17 -42.5q-17 -17.5 -42 -17.5q-25 0 -43 17.5t-18 42.5z" />
<glyph unicode="&#229;" horiz-adv-x="597" d="M538 84q16 0 29 7l0 -82q-11 -8 -29 -12q-18 -4 -34 -4q-36 0 -64 16.5q-28 16.5 -39 53.5q-26 -30 -71 -53q-45 -23 -110 -23q-39 0 -72.5 11q-33.5 11 -58 32q-24.5 21 -39 52q-14.5 31 -14.5 70q0 41 16 71.5q16 30.5 43.5 51q27.5 20.5 63 30.5q35.5 10 74.5 10q56 0 93.5 -12q37.5 -12 63.5 -26l0 27q0 32 -12 52.5q-12 20.5 -31.5 32.5q-19.5 12 -46 17q-26.5 5 -54.5 5q-43 0 -85 -13.5q-42 -13.5 -70 -30.5l0 95q26 15 70 28.5q44 13.5 109 13.5q49 0 91 -12q42 -12 72 -35.5q30 -23.5 47 -59q17 -35.5 17 -81.5v-183q0 -23 11.5 -36q11.5 -13 29.5 -13zt0 0zM390 199q-24 14 -57.5 24.5q-33.5 10.5 -73.5 10.5q-54 0 -84.5 -20q-30.5 -20 -30.5 -56q0 -41 30.5 -59.5q30.5 -18.5 75.5 -18.5q45 0 82 18q37 18 58 41zM286 550q-20 0 -38 8q-18 8 -31.5 21.5q-13.5 13.5 -21.5 31q-8 17.5 -8 37.5q0 20 8 38q8 18 21.5 31.5q13.5 13.5 31.5 21.5q18 8 38 8q20 0 38 -8q18 -8 31.5 -21.5q13.5 -13.5 21.5 -31.5q8 -18 8 -38q0 -20 -8 -37.5q-8 -17.5 -21.5 -31q-13.5 -13.5 -31.5 -21.5q-18 -8 -38 -8zt0 0zM286 598q21 0 36 15q15 15 15 35q0 22 -15 36.5q-15 14.5 -36 14.5q-21 0 -36 -14.5q-15 -14.5 -15 -36.5q0 -20 15 -35t36 -15z" />
<glyph unicode="&#230;" horiz-adv-x="916" d="M495 214q11 -63 61 -97.5q50 -34.5 125 -34.5q46 0 85.5 12q39.5 12 71.5 32l0 -91q-29 -21 -76.5 -34.5q-47.5 -13.5 -103.5 -13.5q-69 0 -126 26.5q-57 26.5 -93 74.5q-14 -15 -35 -32.5q-21 -17.5 -48.5 -33q-27.5 -15.5 -61 -25.5q-33.5 -10 -73.5 -10q-39 0 -73 11q-34 11 -58.5 32q-24.5 21 -39 52q-14.5 31 -14.5 70q0 41 16 71.5q16 30.5 43.5 51q27.5 20.5 63 30.5q35.5 10 74.5 10q56 0 93.5 -12q37.5 -12 63.5 -26l0 27q0 32 -12 52.5q-12 20.5 -31.5 32.5q-19.5 12 -46 17q-26.5 5 -54.5 5q-43 0 -85 -13.5q-42 -13.5 -70 -30.5l0 95q26 15 70 28.5q44 13.5 109 13.5q56 0 105 -21.5q49 -21.5 80 -59.5q33 38 80 59.5q47 21.5 104 21.5q59 0 102.5 -23q43.5 -23 72.5 -60q29 -37 43 -84q14 -47 14 -95v-28zM403 152q-8 22 -12 48q-24 13 -57 23.5q-33 10.5 -74 10.5q-54 0 -85 -20q-31 -20 -31 -56q0 -40 29 -59q29 -19 77 -19q49 0 89.5 21.5q40.5 21.5 63.5 50.5zt0 0zM762 296q0 20 -8 40.5q-8 20.5 -24 37.5q-16 17 -39.5 28q-23.5 11 -56.5 11q-31 0 -55.5 -9.5q-24.5 -9.5 -42 -26q-17.5 -16.5 -28 -37.5q-10.5 -21 -12.5 -44z" />
<glyph unicode="&#231;" horiz-adv-x="520" d="M273 -11q-48 6 -90 26.5q-42 20.5 -73.5 54q-31.5 33.5 -49.5 78.5q-18 45 -18 99q0 58 21.5 105q21.5 47 57.5 81q36 34 84.5 52.5q48.5 18.5 102.5 18.5q45 0 80 -8.5q35 -8.5 68 -25.5l0 -93q-32 16 -64 24q-32 8 -68 8q-36 0 -67.5 -12q-31.5 -12 -55.5 -33.5q-24 -21.5 -37.5 -51.5q-13.5 -30 -13.5 -66q0 -36 13.5 -66q13.5 -30 37.5 -52q24 -22 55.5 -34q31.5 -12 67.5 -12q42 0 75 9q33 9 65 28l0 -92q-45 -26 -97 -35l-62 -130l-125 0z" />
<glyph unicode="&#232;" horiz-adv-x="572" d="M313 -13q-56 0 -105.5 18.5q-49.5 18.5 -86 52q-36.5 33.5 -58 81.5q-21.5 48 -21.5 107q0 54 18 101q18 47 51 82q33 35 79.5 55q46.5 20 103.5 20q59 0 102.5 -23q43.5 -23 72.5 -60q29 -37 43.5 -84q14.5 -47 14.5 -95v-28h-376q11 -63 61 -97.5q50 -34.5 124 -34.5q46 0 86 12q40 12 72 32l0 -91q-29 -21 -76.5 -34.5q-47.5 -13.5 -104.5 -13.5zt0 0zM418 296q0 20 -8 40.5q-8 20.5 -24 37.5q-16 17 -40 28q-24 11 -57 11q-31 0 -55.5 -10q-24.5 -10 -42 -26q-17.5 -16 -27.5 -37.5q-10 -21.5 -12 -43.5zM379 575h-98l-131 140l134 0z" />
<glyph unicode="&#233;" horiz-adv-x="572" d="M313 -13q-56 0 -105.5 18.5q-49.5 18.5 -86 52q-36.5 33.5 -58 81.5q-21.5 48 -21.5 107q0 54 18 101q18 47 51 82q33 35 79.5 55q46.5 20 103.5 20q59 0 102.5 -23q43.5 -23 72.5 -60q29 -37 43.5 -84q14.5 -47 14.5 -95v-28h-376q11 -63 61 -97.5q50 -34.5 124 -34.5q46 0 86 12q40 12 72 32l0 -91q-29 -21 -76.5 -34.5q-47.5 -13.5 -104.5 -13.5zt0 0zM418 296q0 20 -8 40.5q-8 20.5 -24 37.5q-16 17 -40 28q-24 11 -57 11q-31 0 -55.5 -10q-24.5 -10 -42 -26q-17.5 -16 -27.5 -37.5q-10 -21.5 -12 -43.5zM310 715h135l-132 -140l-98 0z" />
<glyph unicode="&#234;" horiz-adv-x="572" d="M313 -13q-56 0 -105.5 18.5q-49.5 18.5 -86 52q-36.5 33.5 -58 81.5q-21.5 48 -21.5 107q0 54 18 101q18 47 51 82q33 35 79.5 55q46.5 20 103.5 20q59 0 102.5 -23q43.5 -23 72.5 -60q29 -37 43.5 -84q14.5 -47 14.5 -95v-28h-376q11 -63 61 -97.5q50 -34.5 124 -34.5q46 0 86 12q40 12 72 32l0 -91q-29 -21 -76.5 -34.5q-47.5 -13.5 -104.5 -13.5zt0 0zM418 296q0 20 -8 40.5q-8 20.5 -24 37.5q-16 17 -40 28q-24 11 -57 11q-31 0 -55.5 -10q-24.5 -10 -42 -26q-17.5 -16 -27.5 -37.5q-10 -21.5 -12 -43.5zM353 715l114 -140h-101l-69 85l-69 -85h-101l114 140z" />
<glyph unicode="&#235;" horiz-adv-x="572" d="M313 -13q-56 0 -105.5 18.5q-49.5 18.5 -86 52q-36.5 33.5 -58 81.5q-21.5 48 -21.5 107q0 54 18 101q18 47 51 82q33 35 79.5 55q46.5 20 103.5 20q59 0 102.5 -23q43.5 -23 72.5 -60q29 -37 43.5 -84q14.5 -47 14.5 -95v-28h-376q11 -63 61 -97.5q50 -34.5 124 -34.5q46 0 86 12q40 12 72 32l0 -91q-29 -21 -76.5 -34.5q-47.5 -13.5 -104.5 -13.5zt0 0zM418 296q0 20 -8 40.5q-8 20.5 -24 37.5q-16 17 -40 28q-24 11 -57 11q-31 0 -55.5 -10q-24.5 -10 -42 -26q-17.5 -16 -27.5 -37.5q-10 -21.5 -12 -43.5zM135 648q0 25 17.5 42.5q17.5 17.5 43.5 17.5q25 0 42 -17.5q17 -17.5 17 -42.5q0 -25 -17 -42.5q-17 -17.5 -42 -17.5q-26 0 -43.5 17.5q-17.5 17.5 -17.5 42.5zt0 0zM342 648q0 25 18 42.5q18 17.5 43 17.5q25 0 42 -17.5q17 -17.5 17 -42.5q0 -25 -17 -42.5q-17 -17.5 -42 -17.5q-25 0 -43 17.5t-18 42.5z" />
<glyph unicode="&#236;" horiz-adv-x="281" d="M183 575h-98l-131 140h134zM86 491h109v-491l-109 0z" />
<glyph unicode="&#237;" horiz-adv-x="281" d="M181 716h135l-132 -140h-97zM86 491h109v-491l-109 0z" />
<glyph unicode="&#238;" horiz-adv-x="281" d="M86 491h109v-491h-109zM196 715l114 -140h-101l-69 85l-69 -85h-101l114 140z" />
<glyph unicode="&#239;" horiz-adv-x="281" d="M-23 648q0 25 17.5 42.5q17.5 17.5 43.5 17.5q25 0 42 -17.5q17 -17.5 17 -42.5q0 -25 -17 -42.5q-17 -17.5 -42 -17.5q-26 0 -43.5 17.5q-17.5 17.5 -17.5 42.5zt0 0zM184 648q0 25 18 42.5q18 17.5 43 17.5q25 0 42 -17.5q17 -17.5 17 -42.5q0 -25 -17 -42.5q-17 -17.5 -42 -17.5q-25 0 -43 17.5q-18 17.5 -18 42.5zt0 0zM86 491h109v-491l-109 0z" />
<glyph unicode="&#240;" horiz-adv-x="599" d="M299 -13q-57 0 -104.5 19.5q-47.5 19.5 -81.5 52.5q-34 33 -52.5 77q-18.5 44 -18.5 93q0 49 16.5 91.5q16.5 42.5 46.5 73q30 30.5 71.5 48q41.5 17.5 91.5 17.5q29 0 55.5 -5.5q26.5 -5.5 49.5 -18.5l-93 123l-118 -48l-41 55l118 47l-66 88h111l40 -54l95 38l41 -54l-95 -38l107 -144q21 -28 36.5 -53q15.5 -25 26.5 -50q11 -25 16.5 -51q5.5 -26 5.5 -56q0 -51 -19 -96.5q-19 -45.5 -53 -80q-34 -34.5 -81.5 -54.5q-47.5 -20 -104.5 -20zt0 0zM299 82q32 0 59.5 11.5q27.5 11.5 48 32q20.5 20.5 32 47.5q11.5 27 11.5 58q0 31 -11.5 58.5q-11.5 27.5 -32 47.5q-20.5 20 -48 32q-27.5 12 -59.5 12q-32 0 -59.5 -12q-27.5 -12 -47.5 -32q-20 -20 -31.5 -47.5q-11.5 -27.5 -11.5 -58.5q0 -31 11.5 -58q11.5 -27 31.5 -47.5q20 -20.5 47.5 -32t59.5 -11.5z" />
<glyph unicode="&#241;" horiz-adv-x="614" d="M77 0v491h108v-65q27 29 71.5 53.5q44.5 24.5 108.5 24.5q89 0 135.5 -55q46.5 -55 46.5 -149v-300h-108v276q0 40 -11 64.5q-11 24.5 -27.5 38.5q-16.5 14 -37 19q-20.5 5 -39.5 5q-21 0 -42 -6.5q-21 -6.5 -39 -17.5q-18 -11 -33 -25.5q-15 -14.5 -25 -30.5l0 -323zM151 585q0 26 7.5 49.5q7.5 23.5 21 41q13.5 17.5 32 27.5q18.5 10 41.5 10q20 0 37.5 -7.5q17.5 -7.5 34 -17q16.5 -9.5 32.5 -17q16 -7.5 31 -7.5q20 0 29 14q9 14 12 32l65 0q0 -26 -7.5 -49q-7.5 -23 -21 -40.5q-13.5 -17.5 -32 -28q-18.5 -10.5 -41.5 -10.5q-20 0 -38 7.5q-18 7.5 -34.5 17q-16.5 9.5 -32 17q-15.5 7.5 -31.5 7.5q-20 0 -28.5 -14q-8.5 -14 -11.5 -32z" />
<glyph unicode="&#242;" horiz-adv-x="623" d="M312 82q35 0 64.5 12.5q29.5 12.5 51 34.5q21.5 22 33.5 52q12 30 12 65q0 34 -12 64q-12 30 -33.5 52q-21.5 22 -51 34.5q-29.5 12.5 -64.5 12.5q-35 0 -64.5 -12.5q-29.5 -12.5 -51.5 -34.5q-22 -22 -34 -52q-12 -30 -12 -64q0 -35 12 -65q12 -30 34 -52q22 -22 51.5 -34.5q29.5 -12.5 64.5 -12.5zt0 0zM312 -13q-60 0 -109.5 20.5q-49.5 20.5 -85.5 55.5q-36 35 -55.5 82.5q-19.5 47.5 -19.5 100.5q0 53 19.5 100q19.5 47 55.5 82q36 35 85.5 55.5q49.5 20.5 109.5 20.5q60 0 109.5 -20.5q49.5 -20.5 85 -55.5q35.5 -35 55 -82q19.5 -47 19.5 -100q0 -53 -19.5 -100.5q-19.5 -47.5 -55 -82.5q-35.5 -35 -85 -55.5q-49.5 -20.5 -109.5 -20.5zt0 0zM374 575h-98l-131 140l134 0z" />
<glyph unicode="&#243;" horiz-adv-x="623" d="M312 82q35 0 64.5 12.5q29.5 12.5 51 34.5q21.5 22 33.5 52q12 30 12 65q0 34 -12 64q-12 30 -33.5 52q-21.5 22 -51 34.5q-29.5 12.5 -64.5 12.5q-35 0 -64.5 -12.5q-29.5 -12.5 -51.5 -34.5q-22 -22 -34 -52q-12 -30 -12 -64q0 -35 12 -65q12 -30 34 -52q22 -22 51.5 -34.5q29.5 -12.5 64.5 -12.5zt0 0zM312 -13q-60 0 -109.5 20.5q-49.5 20.5 -85.5 55.5q-36 35 -55.5 82.5q-19.5 47.5 -19.5 100.5q0 53 19.5 100q19.5 47 55.5 82q36 35 85.5 55.5q49.5 20.5 109.5 20.5q60 0 109.5 -20.5q49.5 -20.5 85 -55.5q35.5 -35 55 -82q19.5 -47 19.5 -100q0 -53 -19.5 -100.5q-19.5 -47.5 -55 -82.5q-35.5 -35 -85 -55.5q-49.5 -20.5 -109.5 -20.5zt0 0zM348 715h135l-132 -140l-98 0z" />
<glyph unicode="&#244;" horiz-adv-x="623" d="M312 82q35 0 64.5 12.5q29.5 12.5 51 34.5q21.5 22 33.5 52q12 30 12 65q0 34 -12 64q-12 30 -33.5 52q-21.5 22 -51 34.5q-29.5 12.5 -64.5 12.5q-35 0 -64.5 -12.5q-29.5 -12.5 -51.5 -34.5q-22 -22 -34 -52q-12 -30 -12 -64q0 -35 12 -65q12 -30 34 -52q22 -22 51.5 -34.5q29.5 -12.5 64.5 -12.5zt0 0zM312 -13q-60 0 -109.5 20.5q-49.5 20.5 -85.5 55.5q-36 35 -55.5 82.5q-19.5 47.5 -19.5 100.5q0 53 19.5 100q19.5 47 55.5 82q36 35 85.5 55.5q49.5 20.5 109.5 20.5q60 0 109.5 -20.5q49.5 -20.5 85 -55.5q35.5 -35 55 -82q19.5 -47 19.5 -100q0 -53 -19.5 -100.5q-19.5 -47.5 -55 -82.5q-35.5 -35 -85 -55.5q-49.5 -20.5 -109.5 -20.5zt0 0zM368 715l114 -140h-101l-69 85l-69 -85h-101l114 140z" />
<glyph unicode="&#245;" horiz-adv-x="623" d="M312 82q35 0 64.5 12.5q29.5 12.5 51 34.5q21.5 22 33.5 52q12 30 12 65q0 34 -12 64q-12 30 -33.5 52q-21.5 22 -51 34.5q-29.5 12.5 -64.5 12.5q-35 0 -64.5 -12.5q-29.5 -12.5 -51.5 -34.5q-22 -22 -34 -52q-12 -30 -12 -64q0 -35 12 -65q12 -30 34 -52q22 -22 51.5 -34.5q29.5 -12.5 64.5 -12.5zt0 0zM312 -13q-60 0 -109.5 20.5q-49.5 20.5 -85.5 55.5q-36 35 -55.5 82.5q-19.5 47.5 -19.5 100.5q0 53 19.5 100q19.5 47 55.5 82q36 35 85.5 55.5q49.5 20.5 109.5 20.5q60 0 109.5 -20.5q49.5 -20.5 85 -55.5q35.5 -35 55 -82q19.5 -47 19.5 -100q0 -53 -19.5 -100.5q-19.5 -47.5 -55 -82.5q-35.5 -35 -85 -55.5q-49.5 -20.5 -109.5 -20.5zt0 0zM140 585q0 26 7.5 49.5q7.5 23.5 21 41q13.5 17.5 32 27.5q18.5 10 41.5 10q20 0 37.5 -7.5q17.5 -7.5 34 -17q16.5 -9.5 32.5 -17q16 -7.5 31 -7.5q20 0 29 14q9 14 12 32l65 0q0 -26 -7.5 -49q-7.5 -23 -21 -40.5q-13.5 -17.5 -32 -28q-18.5 -10.5 -41.5 -10.5q-20 0 -38 7.5q-18 7.5 -34.5 17q-16.5 9.5 -32 17q-15.5 7.5 -31.5 7.5q-20 0 -28.5 -14q-8.5 -14 -11.5 -32z" />
<glyph unicode="&#246;" horiz-adv-x="623" d="M312 82q35 0 64.5 12.5q29.5 12.5 51 34.5q21.5 22 33.5 52q12 30 12 65q0 34 -12 64q-12 30 -33.5 52q-21.5 22 -51 34.5q-29.5 12.5 -64.5 12.5q-35 0 -64.5 -12.5q-29.5 -12.5 -51.5 -34.5q-22 -22 -34 -52q-12 -30 -12 -64q0 -35 12 -65q12 -30 34 -52q22 -22 51.5 -34.5q29.5 -12.5 64.5 -12.5zt0 0zM312 -13q-60 0 -109.5 20.5q-49.5 20.5 -85.5 55.5q-36 35 -55.5 82.5q-19.5 47.5 -19.5 100.5q0 53 19.5 100q19.5 47 55.5 82q36 35 85.5 55.5q49.5 20.5 109.5 20.5q60 0 109.5 -20.5q49.5 -20.5 85 -55.5q35.5 -35 55 -82q19.5 -47 19.5 -100q0 -53 -19.5 -100.5q-19.5 -47.5 -55 -82.5q-35.5 -35 -85 -55.5q-49.5 -20.5 -109.5 -20.5zt0 0zM148 648q0 25 17.5 42.5q17.5 17.5 43.5 17.5q25 0 42 -17.5q17 -17.5 17 -42.5q0 -25 -17 -42.5q-17 -17.5 -42 -17.5q-26 0 -43.5 17.5q-17.5 17.5 -17.5 42.5zt0 0zM355 648q0 25 18 42.5q18 17.5 43 17.5q25 0 42 -17.5q17 -17.5 17 -42.5q0 -25 -17 -42.5q-17 -17.5 -42 -17.5q-25 0 -43 17.5t-18 42.5z" />
<glyph unicode="&#247;" horiz-adv-x="615" d="M308 472q-31 0 -52 21q-21 21 -21 52q0 30 21 51q21 21 52 21q31 0 51.5 -21q20.5 -21 20.5 -51q0 -31 -20.5 -52q-20.5 -21 -51.5 -21zt0 0zM68 377h479v-97h-479zM308 42q-31 0 -52 20.5q-21 20.5 -21 51.5q0 30 21 51.5q21 21.5 52 21.5q31 0 51.5 -21.5q20.5 -21.5 20.5 -51.5q0 -31 -20.5 -51.5t-51.5 -20.5z" />
<glyph unicode="&#248;" horiz-adv-x="623" d="M312 -13q-42 0 -78.5 10q-36.5 10 -67.5 28l-22 -25h-82l54 64q-35 35 -54.5 81.5q-19.5 46.5 -19.5 100.5q0 53 19.5 100q19.5 47 55.5 82q36 35 85.5 55.5q49.5 20.5 109.5 20.5q42 0 78.5 -10q36.5 -10 67.5 -29l22 26h82l-55 -65q35 -35 54.5 -81q19.5 -46 19.5 -99q0 -53 -19.5 -100.5q-19.5 -47.5 -55 -82.5q-35.5 -35 -85 -55.5q-49.5 -20.5 -109.5 -20.5zt0 0zM150 246q0 -60 34 -103l208 245q-17 10 -37 15.5q-20 5.5 -43 5.5q-35 0 -64.5 -12.5q-29.5 -12.5 -51.5 -34.5q-22 -22 -34 -52q-12 -30 -12 -64zt0 0zM312 82q35 0 64.5 12.5q29.5 12.5 51 34.5q21.5 22 33.5 52q12 30 12 65q0 29 -9 54.5q-9 25.5 -25 46.5l-208 -245q37 -20 81 -20z" />
<glyph unicode="&#249;" horiz-adv-x="615" d="M538 491v-491h-108v65q-27 -29 -71.5 -53.5q-44.5 -24.5 -108.5 -24.5q-89 0 -135.5 55q-46.5 55 -46.5 149v300h108v-276q0 -40 11 -64.5q11 -24.5 27.5 -38.5q16.5 -14 37 -19q20.5 -5 39.5 -5q21 0 42 6.5q21 6.5 39 17.5q18 11 33 25.5q15 14.5 25 30.5l0 323zM380 575h-98l-131 140l134 0z" />
<glyph unicode="&#250;" horiz-adv-x="615" d="M538 491v-491h-108v65q-27 -29 -71.5 -53.5q-44.5 -24.5 -108.5 -24.5q-89 0 -135.5 55q-46.5 55 -46.5 149v300h108v-276q0 -40 11 -64.5q11 -24.5 27.5 -38.5q16.5 -14 37 -19q20.5 -5 39.5 -5q21 0 42 6.5q21 6.5 39 17.5q18 11 33 25.5q15 14.5 25 30.5l0 323zM325 715h135l-132 -140l-98 0z" />
<glyph unicode="&#251;" horiz-adv-x="615" d="M538 491v-491h-108v65q-27 -29 -71.5 -53.5q-44.5 -24.5 -108.5 -24.5q-89 0 -135.5 55q-46.5 55 -46.5 149v300h108v-276q0 -40 11 -64.5q11 -24.5 27.5 -38.5q16.5 -14 37 -19q20.5 -5 39.5 -5q21 0 42 6.5q21 6.5 39 17.5q18 11 33 25.5q15 14.5 25 30.5l0 323zM360 715l114 -140h-101l-69 85l-69 -85h-101l114 140z" />
<glyph unicode="&#252;" horiz-adv-x="615" d="M538 491v-491h-108v65q-27 -29 -71.5 -53.5q-44.5 -24.5 -108.5 -24.5q-89 0 -135.5 55q-46.5 55 -46.5 149v300h108v-276q0 -40 11 -64.5q11 -24.5 27.5 -38.5q16.5 -14 37 -19q20.5 -5 39.5 -5q21 0 42 6.5q21 6.5 39 17.5q18 11 33 25.5q15 14.5 25 30.5l0 323zM140 648q0 25 17.5 42.5q17.5 17.5 43.5 17.5q25 0 42 -17.5q17 -17.5 17 -42.5q0 -25 -17 -42.5q-17 -17.5 -42 -17.5q-26 0 -43.5 17.5q-17.5 17.5 -17.5 42.5zt0 0zM347 648q0 25 18 42.5q18 17.5 43 17.5q25 0 42 -17.5q17 -17.5 17 -42.5q0 -25 -17 -42.5q-17 -17.5 -42 -17.5q-25 0 -43 17.5t-18 42.5z" />
<glyph unicode="&#253;" horiz-adv-x="571" d="M127 -205q-27 0 -51 4q-24 4 -38 12l0 95q17 -8 33.5 -12q16.5 -4 37.5 -4q44 0 72.5 32.5q28.5 32.5 54.5 95.5l-215 473h120l148 -346l143 346h117l-235 -544q-32 -73 -77 -112.5q-45 -39.5 -110 -39.5zt0 0zM317 715h135l-132 -140l-98 0z" />
<glyph unicode="&#254;" horiz-adv-x="640" d="M360 504q53 0 96.5 -20.5q43.5 -20.5 75 -56q31.5 -35.5 49 -82.5q17.5 -47 17.5 -100q0 -53 -17.5 -100q-17.5 -47 -49 -82q-31.5 -35 -75 -55.5q-43.5 -20.5 -96.5 -20.5q-64 0 -107.5 24q-43.5 24 -67.5 56l0 -267h-108v900h108v-276q24 32 67.5 56q43.5 24 107.5 24zt0 0zM331 409q-51 0 -89 -25.5q-38 -25.5 -57 -62.5l0 -152q19 -35 57 -61q38 -26 89 -26q34 0 63 13q29 13 50 35q21 22 33 51.5q12 29.5 12 63.5q0 34 -12 64q-12 30 -33 52q-21 22 -50 35t-63 13z" />
<glyph unicode="&#255;" horiz-adv-x="571" d="M127 -205q-27 0 -51 4q-24 4 -38 12l0 95q17 -8 33.5 -12q16.5 -4 37.5 -4q44 0 72.5 32.5q28.5 32.5 54.5 95.5l-215 473h120l148 -346l143 346h117l-235 -544q-32 -73 -77 -112.5q-45 -39.5 -110 -39.5zt0 0zM119 648q0 25 17.5 42.5q17.5 17.5 43.5 17.5q25 0 42 -17.5q17 -17.5 17 -42.5q0 -25 -17 -42.5q-17 -17.5 -42 -17.5q-26 0 -43.5 17.5q-17.5 17.5 -17.5 42.5zt0 0zM326 648q0 25 18 42.5q18 17.5 43 17.5q25 0 42 -17.5q17 -17.5 17 -42.5q0 -25 -17 -42.5q-17 -17.5 -42 -17.5q-25 0 -43 17.5t-18 42.5z" />
<glyph unicode="&#256;" horiz-adv-x="762" d="M328 704h106l306 -704h-118l-76 174h-332l-75 -174h-117zM508 271l-128 294l-128 -294zM241 870h281v-77l-281 0z" />
<glyph unicode="&#257;" horiz-adv-x="597" d="M538 84q16 0 29 7l0 -82q-11 -8 -29 -12q-18 -4 -34 -4q-36 0 -64 16.5q-28 16.5 -39 53.5q-26 -30 -71 -53q-45 -23 -110 -23q-39 0 -72.5 11q-33.5 11 -58 32q-24.5 21 -39 52q-14.5 31 -14.5 70q0 41 16 71.5q16 30.5 43.5 51q27.5 20.5 63 30.5q35.5 10 74.5 10q56 0 93.5 -12q37.5 -12 63.5 -26l0 27q0 32 -12 52.5q-12 20.5 -31.5 32.5q-19.5 12 -46 17q-26.5 5 -54.5 5q-43 0 -85 -13.5q-42 -13.5 -70 -30.5l0 95q26 15 70 28.5q44 13.5 109 13.5q49 0 91 -12q42 -12 72 -35.5q30 -23.5 47 -59q17 -35.5 17 -81.5v-183q0 -23 11.5 -36q11.5 -13 29.5 -13zt0 0zM390 199q-24 14 -57.5 24.5q-33.5 10.5 -73.5 10.5q-54 0 -84.5 -20q-30.5 -20 -30.5 -56q0 -41 30.5 -59.5q30.5 -18.5 75.5 -18.5q45 0 82 18q37 18 58 41zM150 685h281v-77l-281 0z" />
<glyph unicode="&#258;" horiz-adv-x="762" d="M328 704h106l306 -704h-118l-76 174h-332l-75 -174h-117zM508 271l-128 294l-128 -294zM382 748q-31 0 -58.5 11q-27.5 11 -48.5 31q-21 20 -33.5 48.5q-12.5 28.5 -13.5 63.5l80 0q2 -34 22 -56.5q20 -22.5 52 -22.5q32 0 51.5 22.5q19.5 22.5 21.5 56.5l80 0q-1 -35 -13.5 -63.5q-12.5 -28.5 -33.5 -48.5q-21 -20 -48.5 -31t-57.5 -11z" />
<glyph unicode="&#259;" horiz-adv-x="597" d="M538 84q16 0 29 7l0 -82q-11 -8 -29 -12q-18 -4 -34 -4q-36 0 -64 16.5q-28 16.5 -39 53.5q-26 -30 -71 -53q-45 -23 -110 -23q-39 0 -72.5 11q-33.5 11 -58 32q-24.5 21 -39 52q-14.5 31 -14.5 70q0 41 16 71.5q16 30.5 43.5 51q27.5 20.5 63 30.5q35.5 10 74.5 10q56 0 93.5 -12q37.5 -12 63.5 -26l0 27q0 32 -12 52.5q-12 20.5 -31.5 32.5q-19.5 12 -46 17q-26.5 5 -54.5 5q-43 0 -85 -13.5q-42 -13.5 -70 -30.5l0 95q26 15 70 28.5q44 13.5 109 13.5q49 0 91 -12q42 -12 72 -35.5q30 -23.5 47 -59q17 -35.5 17 -81.5v-183q0 -23 11.5 -36q11.5 -13 29.5 -13zt0 0zM390 199q-24 14 -57.5 24.5q-33.5 10.5 -73.5 10.5q-54 0 -84.5 -20q-30.5 -20 -30.5 -56q0 -41 30.5 -59.5q30.5 -18.5 75.5 -18.5q45 0 82 18q37 18 58 41zM285 561q-31 0 -58.5 11q-27.5 11 -48.5 31q-21 20 -33.5 48.5q-12.5 28.5 -13.5 63.5l80 0q2 -34 22.5 -56.5q20.5 -22.5 51.5 -22.5q32 0 52 22.5q20 22.5 22 56.5l79 0q-1 -35 -13.5 -63.5q-12.5 -28.5 -33.5 -48.5q-21 -20 -48.5 -31t-57.5 -11z" />
<glyph unicode="&#260;" horiz-adv-x="762" d="M748 -199q-57 0 -89 29.5q-32 29.5 -32 71.5q0 18 5 33q5 15 11.5 28q6.5 13 14 22q7.5 9 13.5 15l-49 0l-76 174h-332l-75 -174h-117l306 704h106l306 -704q-11 -11 -23.5 -31.5q-12.5 -20.5 -12.5 -44.5q0 -26 17 -41.5q17 -15.5 45 -15.5q12 0 21 2q9 2 17 5l0 -66q-7 -2 -21.5 -4.5q-14.5 -2.5 -34.5 -2.5zt0 0zM508 271l-128 294l-128 -294z" />
<glyph unicode="&#261;" horiz-adv-x="586" d="M575 -190q-57 0 -89 29.5q-32 29.5 -32 71.5q0 27 10 48q10 21 21 35q-30 4 -52.5 20.5q-22.5 16.5 -31.5 48.5q-26 -30 -71 -53q-45 -23 -110 -23q-39 0 -72.5 11q-33.5 11 -58 32q-24.5 21 -39 52q-14.5 31 -14.5 70q0 41 16 71.5q16 30.5 43.5 51q27.5 20.5 63 30.5q35.5 10 74.5 10q56 0 93.5 -12q37.5 -12 63.5 -26l0 27q0 32 -12 52.5q-12 20.5 -31.5 32.5q-19.5 12 -46 17q-26.5 5 -54.5 5q-43 0 -85 -13.5q-42 -13.5 -70 -30.5l0 95q26 15 70 28.5q44 13.5 109 13.5q49 0 91 -12q42 -12 72 -35.5q30 -23.5 47 -59q17 -35.5 17 -81.5v-183q0 -23 11.5 -36q11.5 -13 29.5 -13q16 0 29 7l0 -82q-11 -11 -23.5 -31.5q-12.5 -20.5 -12.5 -44.5q0 -26 17 -41.5q17 -15.5 45 -15.5q12 0 21 2q9 2 17 5l0 -66q-7 -2 -21.5 -4.5q-14.5 -2.5 -34.5 -2.5zt0 0zM390 199q-24 14 -57.5 24.5q-33.5 10.5 -73.5 10.5q-54 0 -84.5 -20q-30.5 -20 -30.5 -56q0 -41 30.5 -59.5q30.5 -18.5 75.5 -18.5q45 0 82 18q37 18 58 41z" />
<glyph unicode="&#262;" horiz-adv-x="684" d="M431 -13q-78 0 -145.5 27q-67.5 27 -117 75q-49.5 48 -78 114.5q-28.5 66.5 -28.5 146.5q0 79 28 146q28 67 77.5 115q49.5 48 117 75q67.5 27 146.5 27q108 0 190 -47l0 -111q-41 26 -85.5 40.5q-44.5 14.5 -103.5 14.5q-55 0 -102 -19.5q-47 -19.5 -81.5 -54q-34.5 -34.5 -54 -82q-19.5 -47.5 -19.5 -104.5q0 -57 20 -105q20 -48 55 -82.5q35 -34.5 82.5 -53.5q47.5 -19 103.5 -19q57 0 107 15q50 15 93 49l0 -111q-42 -27 -94.5 -41.5q-52.5 -14.5 -110.5 -14.5zt0 0zM430 902h135l-131 -140l-99 0z" />
<glyph unicode="&#263;" horiz-adv-x="518" d="M307 -13q-54 0 -102 18.5q-48 18.5 -84 53q-36 34.5 -57.5 82q-21.5 47.5 -21.5 106.5q0 58 21.5 105q21.5 47 57.5 81q36 34 84.5 52.5q48.5 18.5 102.5 18.5q45 0 80 -8.5q35 -8.5 68 -25.5l0 -93q-32 16 -64 24q-32 8 -68 8q-36 0 -67.5 -12q-31.5 -12 -55.5 -33.5q-24 -21.5 -37.5 -51.5q-13.5 -30 -13.5 -66q0 -36 13.5 -66q13.5 -30 37.5 -52q24 -22 55.5 -34q31.5 -12 67.5 -12q42 0 75 9q33 9 65 28l0 -92q-35 -20 -72 -30q-37 -10 -85 -10zt0 0zM307 715h135l-132 -140l-98 0z" />
<glyph unicode="&#264;" horiz-adv-x="684" d="M431 -13q-78 0 -145.5 27q-67.5 27 -117 75q-49.5 48 -78 114.5q-28.5 66.5 -28.5 146.5q0 79 28 146q28 67 77.5 115q49.5 48 117 75q67.5 27 146.5 27q108 0 190 -47l0 -111q-41 26 -85.5 40.5q-44.5 14.5 -103.5 14.5q-55 0 -102 -19.5q-47 -19.5 -81.5 -54q-34.5 -34.5 -54 -82q-19.5 -47.5 -19.5 -104.5q0 -57 20 -105q20 -48 55 -82.5q35 -34.5 82.5 -53.5q47.5 -19 103.5 -19q57 0 107 15q50 15 93 49l0 -111q-42 -27 -94.5 -41.5q-52.5 -14.5 -110.5 -14.5zt0 0zM458 902l114 -140h-101l-69 85l-69 -85h-101l114 140z" />
<glyph unicode="&#265;" horiz-adv-x="518" d="M307 -13q-54 0 -102 18.5q-48 18.5 -84 53q-36 34.5 -57.5 82q-21.5 47.5 -21.5 106.5q0 58 21.5 105q21.5 47 57.5 81q36 34 84.5 52.5q48.5 18.5 102.5 18.5q45 0 80 -8.5q35 -8.5 68 -25.5l0 -93q-32 16 -64 24q-32 8 -68 8q-36 0 -67.5 -12q-31.5 -12 -55.5 -33.5q-24 -21.5 -37.5 -51.5q-13.5 -30 -13.5 -66q0 -36 13.5 -66q13.5 -30 37.5 -52q24 -22 55.5 -34q31.5 -12 67.5 -12q42 0 75 9q33 9 65 28l0 -92q-35 -20 -72 -30q-37 -10 -85 -10zt0 0zM338 715l114 -140h-101l-69 85l-69 -85h-101l114 140z" />
<glyph unicode="&#266;" horiz-adv-x="684" d="M431 -13q-78 0 -145.5 27q-67.5 27 -117 75q-49.5 48 -78 114.5q-28.5 66.5 -28.5 146.5q0 79 28 146q28 67 77.5 115q49.5 48 117 75q67.5 27 146.5 27q108 0 190 -47l0 -111q-41 26 -85.5 40.5q-44.5 14.5 -103.5 14.5q-55 0 -102 -19.5q-47 -19.5 -81.5 -54q-34.5 -34.5 -54 -82q-19.5 -47.5 -19.5 -104.5q0 -57 20 -105q20 -48 55 -82.5q35 -34.5 82.5 -53.5q47.5 -19 103.5 -19q57 0 107 15q50 15 93 49l0 -111q-42 -27 -94.5 -41.5q-52.5 -14.5 -110.5 -14.5zt0 0zM415 768q-26 0 -44 18.5q-18 18.5 -18 44.5q0 26 18 43.5q18 17.5 44 17.5q26 0 44 -17.5q18 -17.5 18 -43.5q0 -26 -18 -44.5t-44 -18.5z" />
<glyph unicode="&#267;" horiz-adv-x="520" d="M307 -13q-54 0 -102 18.5q-48 18.5 -84 53q-36 34.5 -57.5 82q-21.5 47.5 -21.5 106.5q0 58 21.5 105q21.5 47 57.5 81q36 34 84.5 52.5q48.5 18.5 102.5 18.5q45 0 80 -8.5q35 -8.5 68 -25.5l0 -93q-32 16 -64 24q-32 8 -68 8q-36 0 -67.5 -12q-31.5 -12 -55.5 -33.5q-24 -21.5 -37.5 -51.5q-13.5 -30 -13.5 -66q0 -36 13.5 -66q13.5 -30 37.5 -52q24 -22 55.5 -34q31.5 -12 67.5 -12q42 0 75 9q33 9 65 28l0 -92q-35 -20 -72 -30q-37 -10 -85 -10zt0 0zM300 586q-26 0 -44 18q-18 18 -18 44q0 26 18 43.5q18 17.5 44 17.5q26 0 44 -17.5q18 -17.5 18 -43.5q0 -26 -18 -44t-44 -18z" />
<glyph unicode="&#268;" horiz-adv-x="684" d="M431 -13q-78 0 -145.5 27q-67.5 27 -117 75q-49.5 48 -78 114.5q-28.5 66.5 -28.5 146.5q0 79 28 146q28 67 77.5 115q49.5 48 117 75q67.5 27 146.5 27q108 0 190 -47l0 -111q-41 26 -85.5 40.5q-44.5 14.5 -103.5 14.5q-55 0 -102 -19.5q-47 -19.5 -81.5 -54q-34.5 -34.5 -54 -82q-19.5 -47.5 -19.5 -104.5q0 -57 20 -105q20 -48 55 -82.5q35 -34.5 82.5 -53.5q47.5 -19 103.5 -19q57 0 107 15q50 15 93 49l0 -111q-42 -27 -94.5 -41.5q-52.5 -14.5 -110.5 -14.5zt0 0zM352 762l-114 140h101l69 -85l69 85h101l-114 -140z" />
<glyph unicode="&#269;" horiz-adv-x="518" d="M307 -13q-54 0 -102 18.5q-48 18.5 -84 53q-36 34.5 -57.5 82q-21.5 47.5 -21.5 106.5q0 58 21.5 105q21.5 47 57.5 81q36 34 84.5 52.5q48.5 18.5 102.5 18.5q45 0 80 -8.5q35 -8.5 68 -25.5l0 -93q-32 16 -64 24q-32 8 -68 8q-36 0 -67.5 -12q-31.5 -12 -55.5 -33.5q-24 -21.5 -37.5 -51.5q-13.5 -30 -13.5 -66q0 -36 13.5 -66q13.5 -30 37.5 -52q24 -22 55.5 -34q31.5 -12 67.5 -12q42 0 75 9q33 9 65 28l0 -92q-35 -20 -72 -30q-37 -10 -85 -10zt0 0zM233 575l-114 140h101l69 -85l69 85h101l-114 -140z" />
<glyph unicode="&#270;" horiz-adv-x="778" d="M87 700h247q85 0 155 -25.5q70 -25.5 120.5 -72q50.5 -46.5 78.5 -110.5q28 -64 28 -142q0 -78 -28 -142q-28 -64 -78.5 -110.5q-50.5 -46.5 -120.5 -72q-70 -25.5 -155 -25.5h-247zM324 101q66 0 117.5 17.5q51.5 17.5 87.5 49.5q36 32 55 78.5q19 46.5 19 103.5q0 57 -19 103.5q-19 46.5 -55 78.5q-36 32 -87.5 49.5q-51.5 17.5 -117.5 17.5h-127v-498zM291 762l-114 140h101l69 -85l69 85h101l-114 -140z" />
<glyph unicode="&#271;" horiz-adv-x="792" d="M280 -13q-53 0 -96.5 20.5q-43.5 20.5 -75 55.5q-31.5 35 -49 82.5q-17.5 47.5 -17.5 100.5q0 53 17.5 100q17.5 47 49 82q31.5 35 75 55.5q43.5 20.5 96.5 20.5q64 0 107.5 -24q43.5 -24 67.5 -56l0 276h108v-700h-108v67q-24 -32 -67.5 -56q-43.5 -24 -107.5 -24zt0 0zM309 82q51 0 89 25.5q38 25.5 57 62.5l0 152q-19 35 -57 61q-38 26 -89 26q-35 0 -64 -13q-29 -13 -50 -35q-21 -22 -32.5 -51.5q-11.5 -29.5 -11.5 -63.5q0 -34 11.5 -64q11.5 -30 32.5 -52q21 -22 50 -35q29 -13 64 -13zt0 0zM696 700h108l-84 -191l-82 0z" />
<glyph unicode="&#272;" horiz-adv-x="828" d="M137 312h-103v99h103v289h247q85 0 155 -25.5q70 -25.5 120.5 -72q50.5 -46.5 78.5 -110.5q28 -64 28 -142q0 -78 -28 -142q-28 -64 -78.5 -110.5q-50.5 -46.5 -120.5 -72q-70 -25.5 -155 -25.5h-247zM374 101q66 0 117.5 17.5q51.5 17.5 87.5 49.5q36 32 55 78.5q19 46.5 19 103.5q0 57 -19 103.5q-19 46.5 -55 78.5q-36 32 -87.5 49.5q-51.5 17.5 -117.5 17.5h-127v-188h151v-99h-151l0 -211z" />
<glyph unicode="&#273;" horiz-adv-x="636" d="M331 624h124v76h108v-76h96v-69h-96v-555h-108v67q-24 -32 -67.5 -56q-43.5 -24 -107.5 -24q-53 0 -96.5 20.5q-43.5 20.5 -75 55.5q-31.5 35 -49 82.5q-17.5 47.5 -17.5 100.5q0 53 17.5 100q17.5 47 49 82q31.5 35 75 55.5q43.5 20.5 96.5 20.5q64 0 107.5 -24q43.5 -24 67.5 -56l0 131h-124zM309 82q51 0 89 25.5q38 25.5 57 62.5l0 152q-19 35 -57 61q-38 26 -89 26q-35 0 -64 -13q-29 -13 -50 -35q-21 -22 -32.5 -51.5q-11.5 -29.5 -11.5 -63.5q0 -34 11.5 -64q11.5 -30 32.5 -52q21 -22 50 -35t64 -13z" />
<glyph unicode="&#274;" horiz-adv-x="641" d="M87 700h498v-101h-388v-175h316v-101h-316v-222h401v-101h-511zM202 870h281v-77l-281 0z" />
<glyph unicode="&#275;" horiz-adv-x="572" d="M313 -13q-56 0 -105.5 18.5q-49.5 18.5 -86 52q-36.5 33.5 -58 81.5q-21.5 48 -21.5 107q0 54 18 101q18 47 51 82q33 35 79.5 55q46.5 20 103.5 20q59 0 102.5 -23q43.5 -23 72.5 -60q29 -37 43.5 -84q14.5 -47 14.5 -95v-28h-376q11 -63 61 -97.5q50 -34.5 124 -34.5q46 0 86 12q40 12 72 32l0 -91q-29 -21 -76.5 -34.5q-47.5 -13.5 -104.5 -13.5zt0 0zM418 296q0 20 -8 40.5q-8 20.5 -24 37.5q-16 17 -40 28q-24 11 -57 11q-31 0 -55.5 -10q-24.5 -10 -42 -26q-17.5 -16 -27.5 -37.5q-10 -21.5 -12 -43.5zM158 685h281v-77l-281 0z" />
<glyph unicode="&#276;" horiz-adv-x="641" d="M87 700h498v-101h-388v-175h316v-101h-316v-222h401v-101h-511zM343 748q-31 0 -58.5 11q-27.5 11 -48.5 31q-21 20 -33.5 48.5q-12.5 28.5 -13.5 63.5l80 0q2 -34 22 -56.5q20 -22.5 52 -22.5q32 0 51.5 22.5q19.5 22.5 21.5 56.5l80 0q-1 -35 -13.5 -63.5q-12.5 -28.5 -33.5 -48.5q-21 -20 -48.5 -31t-57.5 -11z" />
<glyph unicode="&#277;" horiz-adv-x="572" d="M313 -13q-56 0 -105.5 18.5q-49.5 18.5 -86 52q-36.5 33.5 -58 81.5q-21.5 48 -21.5 107q0 54 18 101q18 47 51 82q33 35 79.5 55q46.5 20 103.5 20q59 0 102.5 -23q43.5 -23 72.5 -60q29 -37 43.5 -84q14.5 -47 14.5 -95v-28h-376q11 -63 61 -97.5q50 -34.5 124 -34.5q46 0 86 12q40 12 72 32l0 -91q-29 -21 -76.5 -34.5q-47.5 -13.5 -104.5 -13.5zt0 0zM418 296q0 20 -8 40.5q-8 20.5 -24 37.5q-16 17 -40 28q-24 11 -57 11q-31 0 -55.5 -10q-24.5 -10 -42 -26q-17.5 -16 -27.5 -37.5q-10 -21.5 -12 -43.5zM298 561q-31 0 -58.5 11q-27.5 11 -48.5 31q-21 20 -33.5 48.5q-12.5 28.5 -13.5 63.5l80 0q2 -34 22.5 -56.5q20.5 -22.5 51.5 -22.5q32 0 52 22.5q20 22.5 22 56.5l79 0q-1 -35 -13.5 -63.5q-12.5 -28.5 -33.5 -48.5q-21 -20 -48.5 -31t-57.5 -11z" />
<glyph unicode="&#278;" horiz-adv-x="641" d="M87 700h498v-101h-388v-175h316v-101h-316v-222h401v-101h-511zM342 768q-26 0 -44 18.5q-18 18.5 -18 44.5q0 26 18 43.5q18 17.5 44 17.5q26 0 44 -17.5q18 -17.5 18 -43.5q0 -26 -18 -44.5t-44 -18.5z" />
<glyph unicode="&#279;" horiz-adv-x="572" d="M313 -13q-56 0 -105.5 18.5q-49.5 18.5 -86 52q-36.5 33.5 -58 81.5q-21.5 48 -21.5 107q0 54 18 101q18 47 51 82q33 35 79.5 55q46.5 20 103.5 20q59 0 102.5 -23q43.5 -23 72.5 -60q29 -37 43.5 -84q14.5 -47 14.5 -95v-28h-376q11 -63 61 -97.5q50 -34.5 124 -34.5q46 0 86 12q40 12 72 32l0 -91q-29 -21 -76.5 -34.5q-47.5 -13.5 -104.5 -13.5zt0 0zM418 296q0 20 -8 40.5q-8 20.5 -24 37.5q-16 17 -40 28q-24 11 -57 11q-31 0 -55.5 -10q-24.5 -10 -42 -26q-17.5 -16 -27.5 -37.5q-10 -21.5 -12 -43.5zM299 586q-26 0 -44 18q-18 18 -18 44q0 26 18 43.5q18 17.5 44 17.5q26 0 44 -17.5q18 -17.5 18 -43.5q0 -26 -18 -44t-44 -18z" />
<glyph unicode="&#280;" horiz-adv-x="644" d="M87 700h498v-101h-388v-175h316v-101h-316v-222h401v-101q-11 -11 -23.5 -31.5q-12.5 -20.5 -12.5 -44.5q0 -26 17 -41.5q17 -15.5 45 -15.5q12 0 21 2q9 2 17 5l0 -66q-7 -2 -21.5 -4.5q-14.5 -2.5 -34.5 -2.5q-57 0 -89 29.5q-32 29.5 -32 71.5q0 18 5 33q5 15 11.5 28q6.5 13 14 22q7.5 9 13.5 15l-442 0z" />
<glyph unicode="&#281;" horiz-adv-x="572" d="M502 -164q-57 0 -89 29.5q-32 29.5 -32 71.5q0 17 4 31.5q4 14.5 11 27.5q-39 -9 -83 -9q-56 0 -105.5 18.5q-49.5 18.5 -86 52q-36.5 33.5 -58 81.5q-21.5 48 -21.5 107q0 54 18 101q18 47 51 82q33 35 79.5 55q46.5 20 103.5 20q59 0 102.5 -23q43.5 -23 72.5 -60q29 -37 43.5 -84q14.5 -47 14.5 -95v-28h-376q11 -63 61 -97.5q50 -34.5 124 -34.5q46 0 86 12q40 12 72 32l0 -91q-11 -11 -23.5 -31.5q-12.5 -20.5 -12.5 -44.5q0 -26 17 -41.5q17 -15.5 45 -15.5q12 0 21 2q9 2 17 5l0 -66q-7 -2 -21.5 -4.5q-14.5 -2.5 -34.5 -2.5zt0 0zM418 296q0 20 -8 40.5q-8 20.5 -24 37.5q-16 17 -40 28q-24 11 -57 11q-31 0 -55.5 -10q-24.5 -10 -42 -26q-17.5 -16 -27.5 -37.5q-10 -21.5 -12 -43.5z" />
<glyph unicode="&#282;" horiz-adv-x="641" d="M87 700h498v-101h-388v-175h316v-101h-316v-222h401v-101h-511zM287 762l-114 140h101l69 -85l69 85h101l-114 -140z" />
<glyph unicode="&#283;" horiz-adv-x="572" d="M313 -13q-56 0 -105.5 18.5q-49.5 18.5 -86 52q-36.5 33.5 -58 81.5q-21.5 48 -21.5 107q0 54 18 101q18 47 51 82q33 35 79.5 55q46.5 20 103.5 20q59 0 102.5 -23q43.5 -23 72.5 -60q29 -37 43.5 -84q14.5 -47 14.5 -95v-28h-376q11 -63 61 -97.5q50 -34.5 124 -34.5q46 0 86 12q40 12 72 32l0 -91q-29 -21 -76.5 -34.5q-47.5 -13.5 -104.5 -13.5zt0 0zM418 296q0 20 -8 40.5q-8 20.5 -24 37.5q-16 17 -40 28q-24 11 -57 11q-31 0 -55.5 -10q-24.5 -10 -42 -26q-17.5 -16 -27.5 -37.5q-10 -21.5 -12 -43.5zM241 575l-114 140h101l69 -85l69 85h101l-114 -140z" />
<glyph unicode="&#284;" horiz-adv-x="774" d="M426 -13q-77 0 -143 27q-66 27 -115.5 75q-49.5 48 -77.5 114.5q-28 66.5 -28 146.5q0 79 28 146q28 67 77.5 115q49.5 48 116.5 75q67 27 146 27q67 0 119.5 -15.5q52.5 -15.5 96.5 -44.5l0 -109q-51 35 -103 50.5q-52 15.5 -106 15.5q-57 0 -105 -19q-48 -19 -83 -53.5q-35 -34.5 -54.5 -82.5q-19.5 -48 -19.5 -106q0 -59 20 -107q20 -48 54 -82q34 -34 79.5 -52q45.5 -18 97.5 -18q48 0 92.5 14q44.5 14 76.5 45l0 255h110v-300q-20 -24 -49 -45q-29 -21 -64.5 -37q-35.5 -16 -77.5 -25.5q-42 -9.5 -88 -9.5zt0 0zM472 902l114 -140h-101l-69 85l-69 -85h-101l114 140z" />
<glyph unicode="&#285;" horiz-adv-x="637" d="M563 491v-447q0 -64 -23.5 -111q-23.5 -47 -62 -77.5q-38.5 -30.5 -88 -45.5q-49.5 -15 -102.5 -15q-55 0 -107 12.5q-52 12.5 -85 31.5l0 99q38 -23 85 -35.5q47 -12.5 95 -12.5q34 0 66.5 7.5q32.5 7.5 58 25.5q25.5 18 40.5 47q15 29 15 72v37q-24 -30 -67.5 -53.5q-43.5 -23.5 -107.5 -23.5q-53 0 -96.5 20q-43.5 20 -75 54q-31.5 34 -49 80q-17.5 46 -17.5 98q0 51 17.5 96.5q17.5 45.5 49 79.5q31.5 34 75 54q43.5 20 96.5 20q64 0 107.5 -23q43.5 -23 67.5 -54l0 64zM309 97q50 0 88.5 24q38.5 24 57.5 60l0 143q-19 37 -57.5 61q-38.5 24 -88.5 24q-35 0 -64 -12q-29 -12 -50 -33q-21 -21 -32.5 -49.5q-11.5 -28.5 -11.5 -61.5q0 -33 11.5 -61.5q11.5 -28.5 32.5 -49.5q21 -21 50 -33q29 -12 64 -12zt0 0zM368 715l114 -140h-101l-69 85l-69 -85h-101l114 140z" />
<glyph unicode="&#286;" horiz-adv-x="774" d="M426 -13q-77 0 -143 27q-66 27 -115.5 75q-49.5 48 -77.5 114.5q-28 66.5 -28 146.5q0 79 28 146q28 67 77.5 115q49.5 48 116.5 75q67 27 146 27q67 0 119.5 -15.5q52.5 -15.5 96.5 -44.5l0 -109q-51 35 -103 50.5q-52 15.5 -106 15.5q-57 0 -105 -19q-48 -19 -83 -53.5q-35 -34.5 -54.5 -82.5q-19.5 -48 -19.5 -106q0 -59 20 -107q20 -48 54 -82q34 -34 79.5 -52q45.5 -18 97.5 -18q48 0 92.5 14q44.5 14 76.5 45l0 255h110v-300q-20 -24 -49 -45q-29 -21 -64.5 -37q-35.5 -16 -77.5 -25.5q-42 -9.5 -88 -9.5zt0 0zM426 757q-31 0 -58.5 11q-27.5 11 -48.5 31q-21 20 -33.5 48.5q-12.5 28.5 -13.5 63.5l80 0q2 -34 22 -56.5q20 -22.5 52 -22.5q32 0 51.5 22.5q19.5 22.5 21.5 56.5l80 0q-1 -35 -13.5 -63.5q-12.5 -28.5 -33.5 -48.5q-21 -20 -48.5 -31t-57.5 -11z" />
<glyph unicode="&#287;" horiz-adv-x="637" d="M563 491v-447q0 -64 -23.5 -111q-23.5 -47 -62 -77.5q-38.5 -30.5 -88 -45.5q-49.5 -15 -102.5 -15q-55 0 -107 12.5q-52 12.5 -85 31.5l0 99q38 -23 85 -35.5q47 -12.5 95 -12.5q34 0 66.5 7.5q32.5 7.5 58 25.5q25.5 18 40.5 47q15 29 15 72v37q-24 -30 -67.5 -53.5q-43.5 -23.5 -107.5 -23.5q-53 0 -96.5 20q-43.5 20 -75 54q-31.5 34 -49 80q-17.5 46 -17.5 98q0 51 17.5 96.5q17.5 45.5 49 79.5q31.5 34 75 54q43.5 20 96.5 20q64 0 107.5 -23q43.5 -23 67.5 -54l0 64zM309 97q50 0 88.5 24q38.5 24 57.5 60l0 143q-19 37 -57.5 61q-38.5 24 -88.5 24q-35 0 -64 -12q-29 -12 -50 -33q-21 -21 -32.5 -49.5q-11.5 -28.5 -11.5 -61.5q0 -33 11.5 -61.5q11.5 -28.5 32.5 -49.5q21 -21 50 -33q29 -12 64 -12zt0 0zM316 561q-31 0 -58.5 11q-27.5 11 -48.5 31q-21 20 -33.5 48.5q-12.5 28.5 -13.5 63.5l80 0q2 -34 22.5 -56.5q20.5 -22.5 51.5 -22.5q32 0 52 22.5q20 22.5 22 56.5l79 0q-1 -35 -13.5 -63.5q-12.5 -28.5 -33.5 -48.5q-21 -20 -48.5 -31t-57.5 -11z" />
<glyph unicode="&#288;" horiz-adv-x="774" d="M426 -13q-77 0 -143 27q-66 27 -115.5 75q-49.5 48 -77.5 114.5q-28 66.5 -28 146.5q0 79 28 146q28 67 77.5 115q49.5 48 116.5 75q67 27 146 27q67 0 119.5 -15.5q52.5 -15.5 96.5 -44.5l0 -109q-51 35 -103 50.5q-52 15.5 -106 15.5q-57 0 -105 -19q-48 -19 -83 -53.5q-35 -34.5 -54.5 -82.5q-19.5 -48 -19.5 -106q0 -59 20 -107q20 -48 54 -82q34 -34 79.5 -52q45.5 -18 97.5 -18q48 0 92.5 14q44.5 14 76.5 45l0 255h110v-300q-20 -24 -49 -45q-29 -21 -64.5 -37q-35.5 -16 -77.5 -25.5q-42 -9.5 -88 -9.5zt0 0zM418 768q-26 0 -44 18.5q-18 18.5 -18 44.5q0 26 18 43.5q18 17.5 44 17.5q26 0 44 -17.5q18 -17.5 18 -43.5q0 -26 -18 -44.5t-44 -18.5z" />
<glyph unicode="&#289;" horiz-adv-x="637" d="M563 491v-447q0 -64 -23.5 -111q-23.5 -47 -62 -77.5q-38.5 -30.5 -88 -45.5q-49.5 -15 -102.5 -15q-55 0 -107 12.5q-52 12.5 -85 31.5l0 99q38 -23 85 -35.5q47 -12.5 95 -12.5q34 0 66.5 7.5q32.5 7.5 58 25.5q25.5 18 40.5 47q15 29 15 72v37q-24 -30 -67.5 -53.5q-43.5 -23.5 -107.5 -23.5q-53 0 -96.5 20q-43.5 20 -75 54q-31.5 34 -49 80q-17.5 46 -17.5 98q0 51 17.5 96.5q17.5 45.5 49 79.5q31.5 34 75 54q43.5 20 96.5 20q64 0 107.5 -23q43.5 -23 67.5 -54l0 64zM309 97q50 0 88.5 24q38.5 24 57.5 60l0 143q-19 37 -57.5 61q-38.5 24 -88.5 24q-35 0 -64 -12q-29 -12 -50 -33q-21 -21 -32.5 -49.5q-11.5 -28.5 -11.5 -61.5q0 -33 11.5 -61.5q11.5 -28.5 32.5 -49.5q21 -21 50 -33q29 -12 64 -12zt0 0zM309 586q-26 0 -44 18q-18 18 -18 44q0 26 18 43.5q18 17.5 44 17.5q26 0 44 -17.5q18 -17.5 18 -43.5q0 -26 -18 -44t-44 -18z" />
<glyph unicode="&#290;" horiz-adv-x="774" d="M426 -13q-77 0 -143 27q-66 27 -115.5 75q-49.5 48 -77.5 114.5q-28 66.5 -28 146.5q0 79 28 146q28 67 77.5 115q49.5 48 116.5 75q67 27 146 27q67 0 119.5 -15.5q52.5 -15.5 96.5 -44.5l0 -109q-51 35 -103 50.5q-52 15.5 -106 15.5q-57 0 -105 -19q-48 -19 -83 -53.5q-35 -34.5 -54.5 -82.5q-19.5 -48 -19.5 -106q0 -59 20 -107q20 -48 54 -82q34 -34 79.5 -52q45.5 -18 97.5 -18q48 0 92.5 14q44.5 14 76.5 45l0 255h110v-300q-20 -24 -49 -45q-29 -21 -64.5 -37q-35.5 -16 -77.5 -25.5q-42 -9.5 -88 -9.5zt0 0zM385 -60h108l-84 -191l-82 0z" />
<glyph unicode="&#291;" horiz-adv-x="637" d="M563 491v-447q0 -64 -23.5 -111q-23.5 -47 -62 -77.5q-38.5 -30.5 -88 -45.5q-49.5 -15 -102.5 -15q-55 0 -107 12.5q-52 12.5 -85 31.5l0 99q38 -23 85 -35.5q47 -12.5 95 -12.5q34 0 66.5 7.5q32.5 7.5 58 25.5q25.5 18 40.5 47q15 29 15 72v37q-24 -30 -67.5 -53.5q-43.5 -23.5 -107.5 -23.5q-53 0 -96.5 20q-43.5 20 -75 54q-31.5 34 -49 80q-17.5 46 -17.5 98q0 51 17.5 96.5q17.5 45.5 49 79.5q31.5 34 75 54q43.5 20 96.5 20q64 0 107.5 -23q43.5 -23 67.5 -54l0 64zM309 97q50 0 88.5 24q38.5 24 57.5 60l0 143q-19 37 -57.5 61q-38.5 24 -88.5 24q-35 0 -64 -12q-29 -12 -50 -33q-21 -21 -32.5 -49.5q-11.5 -28.5 -11.5 -61.5q0 -33 11.5 -61.5q11.5 -28.5 32.5 -49.5q21 -21 50 -33q29 -12 64 -12zt0 0zM353 565h-108l84 191l82 0z" />
<glyph unicode="&#292;" horiz-adv-x="759" d="M87 700h110v-276h365v276h110v-700h-110v323h-365v-323h-110zM438 902l114 -140h-101l-69 85l-69 -85h-101l114 140z" />
<glyph unicode="&#293;" horiz-adv-x="609" d="M72 0v700h108v-274q27 29 71.5 53.5q44.5 24.5 108.5 24.5q89 0 135.5 -55q46.5 -55 46.5 -149v-300h-108v276q0 40 -11 64.5q-11 24.5 -28 38.5q-17 14 -37.5 19q-20.5 5 -38.5 5q-21 0 -42 -6.5q-21 -6.5 -39 -17.5q-18 -11 -33 -25.5q-15 -14.5 -25 -30.5l0 -323zM186 902l114 -140h-101l-69 85l-69 -85h-101l114 140z" />
<glyph unicode="&#294;" horiz-adv-x="841" d="M129 519h-81v72h81v109h110v-109h365v109h110v-109h79v-72h-79v-519h-110v323h-365v-323h-110zM604 424v95h-365l0 -95z" />
<glyph unicode="&#295;" horiz-adv-x="645" d="M108 0v537h-102v87h102v76h108v-76h151v-87h-151v-163q27 29 71.5 53.5q44.5 24.5 108.5 24.5q89 0 135.5 -55q46.5 -55 46.5 -149v-248h-108v224q0 40 -11 64.5q-11 24.5 -28 38.5q-17 14 -37.5 19q-20.5 5 -38.5 5q-21 0 -42 -6.5q-21 -6.5 -39 -17.5q-18 -11 -33 -25.5q-15 -14.5 -25 -30.5l0 -271z" />
<glyph unicode="&#296;" horiz-adv-x="295" d="M92 700h110v-700h-110zM-24 770q0 26 7.5 49q7.5 23 21 40.5q13.5 17.5 32 27.5q18.5 10 41.5 10q20 0 38 -7.5q18 -7.5 34.5 -17q16.5 -9.5 32.5 -17q16 -7.5 31 -7.5q20 0 28.5 14.5q8.5 14.5 11.5 31.5l65 0q0 -26 -7.5 -49q-7.5 -23 -20.5 -40q-13 -17 -32 -27.5q-19 -10.5 -42 -10.5q-20 0 -38 7.5q-18 7.5 -34.5 17q-16.5 9.5 -32 17q-15.5 7.5 -30.5 7.5q-20 0 -29 -14q-9 -14 -12 -32z" />
<glyph unicode="&#297;" horiz-adv-x="281" d="M-31 585q0 26 7.5 49.5q7.5 23.5 21 41q13.5 17.5 32 27.5q18.5 10 41.5 10q20 0 37.5 -7.5q17.5 -7.5 34 -17q16.5 -9.5 32.5 -17q16 -7.5 31 -7.5q20 0 29 14q9 14 12 32l65 0q0 -26 -7.5 -49q-7.5 -23 -21 -40.5q-13.5 -17.5 -32 -28q-18.5 -10.5 -41.5 -10.5q-20 0 -38 7.5q-18 7.5 -34.5 17q-16.5 9.5 -32 17q-15.5 7.5 -31.5 7.5q-20 0 -28.5 -14q-8.5 -14 -11.5 -32zM86 491h109v-491l-109 0z" />
<glyph unicode="&#298;" horiz-adv-x="295" d="M92 700h110v-700h-110zM7 870h281v-77l-281 0z" />
<glyph unicode="&#299;" horiz-adv-x="281" d="M-1 685h281v-77h-281zM86 491h109v-491l-109 0z" />
<glyph unicode="&#300;" horiz-adv-x="295" d="M92 700h110v-700h-110zM148 748q-31 0 -58.5 11q-27.5 11 -48.5 31q-21 20 -33.5 48.5q-12.5 28.5 -13.5 63.5l80 0q2 -34 22 -56.5q20 -22.5 52 -22.5q32 0 51.5 22.5q19.5 22.5 21.5 56.5l80 0q-1 -35 -13.5 -63.5q-12.5 -28.5 -33.5 -48.5q-21 -20 -48.5 -31t-57.5 -11z" />
<glyph unicode="&#301;" horiz-adv-x="281" d="M141 561q-31 0 -58.5 11q-27.5 11 -48.5 31q-21 20 -33.5 48.5q-12.5 28.5 -13.5 63.5l80 0q2 -34 22.5 -56.5q20.5 -22.5 51.5 -22.5q32 0 52 22.5q20 22.5 22 56.5l79 0q-1 -35 -13.5 -63.5q-12.5 -28.5 -33.5 -48.5q-21 -20 -48.5 -31q-27.5 -11 -57.5 -11zt0 0zM86 491h109v-491l-109 0z" />
<glyph unicode="&#302;" horiz-adv-x="295" d="M92 700h110v-700q-11 -11 -23.5 -31.5q-12.5 -20.5 -12.5 -44.5q0 -26 17 -41.5q17 -15.5 45 -15.5q12 0 21 2q9 2 17 5l0 -66q-7 -2 -21.5 -4.5q-14.5 -2.5 -34.5 -2.5q-57 0 -89 29.5q-32 29.5 -32 71.5q0 18 5 33q5 15 11.5 28q6.5 13 14 22q7.5 9 13.5 15l-41 0z" />
<glyph unicode="&#303;" horiz-adv-x="279" d="M86 491h108v-491q-11 -11 -23.5 -31.5q-12.5 -20.5 -12.5 -44.5q0 -26 17 -41.5q17 -15.5 45 -15.5q12 0 21 2q9 2 17 5l0 -66q-7 -2 -21.5 -4.5q-14.5 -2.5 -34.5 -2.5q-57 0 -89 29.5q-32 29.5 -32 71.5q0 18 5 33q5 15 11.5 28q6.5 13 14 22q7.5 9 13.5 15l-39 0zM140 579q-29 0 -48.5 19.5q-19.5 19.5 -19.5 48.5q0 29 19.5 49q19.5 20 48.5 20q29 0 48 -20q19 -20 19 -49q0 -29 -19 -48.5t-48 -19.5z" />
<glyph unicode="&#304;" horiz-adv-x="295" d="M92 700h110v-700h-110zM148 768q-26 0 -44 18.5q-18 18.5 -18 44.5q0 26 18 43.5q18 17.5 44 17.5q26 0 44 -17.5q18 -17.5 18 -43.5q0 -26 -18 -44.5t-44 -18.5z" />
<glyph unicode="&#305;" horiz-adv-x="281" d="M86 491h109v-491l-109 0z" />
<glyph unicode="&#306;" horiz-adv-x="619" d="M92 700h110v-438h-110zM275 -13q-48 0 -97 11.5q-49 11.5 -86 34.5l0 109q32 -23 76.5 -37.5q44.5 -14.5 89.5 -14.5q83 0 125.5 37q42.5 37 42.5 122v451h110v-463q0 -69 -20 -116.5q-20 -47.5 -55.5 -77.5q-35.5 -30 -83 -43t-102.5 -13z" />
<glyph unicode="&#307;" horiz-adv-x="559" d="M86 491h108v-491h-108zM140 579q-29 0 -48.5 19.5q-19.5 19.5 -19.5 48.5q0 29 19.5 49q19.5 20 48.5 20q29 0 48 -20q19 -20 19 -49q0 -29 -19 -48.5q-19 -19.5 -48 -19.5zt0 0zM310 -205q-24 0 -52.5 5q-28.5 5 -45.5 15l0 94q14 -8 32.5 -13.5q18.5 -5.5 39.5 -5.5q39 0 60 21.5q21 21.5 21 65.5v514h108v-526q0 -43 -12 -75q-12 -32 -34 -53q-22 -21 -51.5 -31.5q-29.5 -10.5 -65.5 -10.5zt0 0zM418 579q-29 0 -48.5 19.5q-19.5 19.5 -19.5 48.5q0 29 19.5 49q19.5 20 48.5 20q29 0 48.5 -20q19.5 -20 19.5 -49q0 -29 -19.5 -48.5t-48.5 -19.5z" />
<glyph unicode="&#308;" horiz-adv-x="500" d="M187 -13q-43 0 -87 10q-44 10 -77 33l0 109q28 -23 66 -36q38 -13 77 -13q72 0 108.5 35q36.5 35 36.5 115v460h110v-478q0 -65 -18 -110q-18 -45 -49.5 -72.5q-31.5 -27.5 -74.5 -40q-43 -12.5 -92 -12.5zt0 0zM425 902l114 -140h-101l-69 85l-69 -85h-101l114 140z" />
<glyph unicode="&#309;" horiz-adv-x="280" d="M31 -205q-24 0 -52.5 5q-28.5 5 -45.5 15l0 94q14 -8 32.5 -13.5q18.5 -5.5 39.5 -5.5q39 0 60 21.5q21 21.5 21 65.5v514h108v-526q0 -43 -12 -75q-12 -32 -34 -53q-22 -21 -51.5 -31.5q-29.5 -10.5 -65.5 -10.5zt0 0zM197 715l114 -140h-101l-69 85l-69 -85h-101l114 140z" />
<glyph unicode="&#310;" horiz-adv-x="682" d="M87 700h110v-286l287 286h141l-324 -320l376 -380h-150l-330 336v-336h-110zM325 -60h108l-84 -191l-82 0z" />
<glyph unicode="&#311;" horiz-adv-x="570" d="M76 700h108v-395l194 186h138l-233 -220l268 -271h-148l-219 222v-222h-108zM261 -60h108l-84 -191l-82 0z" />
<glyph unicode="&#312;" horiz-adv-x="571" d="M77 491h108v-186l194 186h138l-233 -220l268 -271h-148l-219 222v-222l-108 0z" />
<glyph unicode="&#313;" horiz-adv-x="600" d="M87 700h111v-599h372v-101h-483zM191 902h135l-131 -140l-99 0z" />
<glyph unicode="&#314;" horiz-adv-x="299" d="M193 -13q-23 0 -45 6q-22 6 -39.5 20.5q-17.5 14.5 -28 39.5q-10.5 25 -10.5 63v584h108v-554q0 -32 15 -46q15 -14 39 -14q23 0 41 10l0 -93q-17 -8 -37.5 -12q-20.5 -4 -42.5 -4zt0 0zM172 902h135l-131 -140l-99 0z" />
<glyph unicode="&#315;" horiz-adv-x="600" d="M87 700h111v-599h372v-101h-483zM301 -60h108l-84 -191l-82 0z" />
<glyph unicode="&#316;" horiz-adv-x="299" d="M193 -13q-23 0 -45 6q-22 6 -39.5 20.5q-17.5 14.5 -28 39.5q-10.5 25 -10.5 63v584h108v-554q0 -32 15 -46q15 -14 39 -14q23 0 41 10l0 -93q-17 -8 -37.5 -12q-20.5 -4 -42.5 -4zt0 0zM141 -60h108l-84 -191l-82 0z" />
<glyph unicode="&#317;" horiz-adv-x="593" d="M87 700h111v-599h372v-101h-483zM468 700h108l-84 -191l-82 0z" />
</font>
</defs>
</svg>
